<?xml version="1.0" encoding="utf-8"?>
<!-- Generator: Adobe Illustrator 24.0.1, SVG Export Plug-In . SVG Version: 6.00 Build 0)  -->
<svg version="1.1" xmlns="http://www.w3.org/2000/svg" xmlns:xlink="http://www.w3.org/1999/xlink" x="0px" y="0px"
	 viewBox="0 0 414 512" style="enable-background:new 0 0 414 512;" xml:space="preserve">
<style type="text/css">
	.st0{fill:url(#SVGID_1_);}
	.st1{opacity:0.42;fill:url(#SVGID_2_);}
	.st2{opacity:0.43;fill:#CEE5ED;}
	.st3{fill:#AAC6CE;}
	.st4{fill:#85B0BA;}
	.st5{fill:#3E8CCC;}
	.st6{fill:#CEE5ED;}
	.st7{fill:none;stroke:#3E8CCC;stroke-miterlimit:10;}
	.st8{fill:#1E394C;}
	.st9{fill:#62BDF4;}
	.st10{fill:#34648C;}
	.st11{fill:#67B8EF;}
	.st12{opacity:0.25;fill:#34648C;}
	.st13{fill:#F2BF75;}
	.st14{fill:#0F2A3F;}
	.st15{fill:#EA9249;}
	.st16{fill:#80A9B2;}
	.st17{opacity:0.67;fill:#EA9249;}
	.st18{opacity:0.29;fill:#34648C;}
	.st19{opacity:0.48;fill:#1E394C;}
	.st20{fill:#2173AA;}
	.st21{fill:#1A3651;}
</style>
<g id="Layer_1">
	<linearGradient id="SVGID_1_" gradientUnits="userSpaceOnUse" x1="207" y1="665.1622" x2="207" y2="46.0774">
		<stop  offset="0" style="stop-color:#62BDF4"/>
		<stop  offset="1" style="stop-color:#CEE5ED"/>
	</linearGradient>
	<rect class="st0" width="414" height="512"/>
</g>
<g id="BUILDER_LOGIN">
	<g>
		<g>
			<g>
				<g>
					<linearGradient id="SVGID_2_" gradientUnits="userSpaceOnUse" x1="207" y1="383.1947" x2="207" y2="43.1286">
						<stop  offset="0" style="stop-color:#FFFFFF"/>
						<stop  offset="0.1258" style="stop-color:#F8FCFE"/>
						<stop  offset="0.3051" style="stop-color:#E6F3FC"/>
						<stop  offset="0.5164" style="stop-color:#C7E5F9"/>
						<stop  offset="0.7522" style="stop-color:#9CD1F5"/>
						<stop  offset="1" style="stop-color:#67B8EF"/>
					</linearGradient>
					<path class="st1" d="M111.9,406.6h190.2c42.4-29.2,70.1-77.4,70.1-132c0-89.2-74-174.2-165.2-174.2
						c-91.2,0-165.2,85.1-165.2,174.2C41.8,329.2,69.5,377.4,111.9,406.6z"/>
					<ellipse class="st2" cx="207" cy="407.1" rx="174.1" ry="6.9"/>
					<g>
						<rect x="142.3" y="324.6" class="st3" width="7.9" height="75.7"/>
						<rect x="142.3" y="324.6" class="st4" width="7.9" height="10.6"/>
						<path class="st3" d="M182.9,400.3H112c-1.3,0-2.3,1.1-2.3,2.3v4.6h75.6v-4.6C185.3,401.4,184.2,400.3,182.9,400.3z"/>
						<path class="st3" d="M127.5,324.6h54.9c-20-7.2-12.2-74.7-8.6-100.4c0.7-5.2-3.3-9.8-8.5-9.8l-36.6,0
							c-7.5,0-13.8,5.5-14.8,12.9c-3.2,23.3-8.3,71.5,1.7,90.2C118,322,122.5,324.6,127.5,324.6z"/>
					</g>
					<g>
						
							<ellipse transform="matrix(0.9759 -0.2181 0.2181 0.9759 -27.4281 24.454)" class="st5" cx="97.1" cy="136.5" rx="38.5" ry="38.5"/>
						<circle class="st6" cx="97.1" cy="136.5" r="31.4"/>
						<path class="st7" d="M97.1,113.8"/>
						<g>
							<g>
								<path class="st5" d="M88.1,147.2c-0.5,0-1-0.2-1.4-0.6c-0.8-0.8-0.8-2,0-2.8l8.2-8.2v-21.5c0-1.1,0.9-2,2-2c1.1,0,2,0.9,2,2
									v22.3c0,0.5-0.2,1-0.6,1.4l-8.8,8.8C89.1,147,88.6,147.2,88.1,147.2z"/>
							</g>
							<path class="st8" d="M101.2,135.9c0-2.5-2-4.5-4.5-4.5c-2.5,0-4.5,2-4.5,4.5c0,2.5,2,4.5,4.5,4.5
								C99.1,140.4,101.2,138.4,101.2,135.9z"/>
						</g>
					</g>
					<g>
						<path class="st9" d="M316.1,172.3h-65.7c-3.4,0-6.1,2.7-6.1,6.1V208c0,3.4,2.7,6.1,6.1,6.1h4.6v7.2c0,1,1.2,1.5,1.9,0.9l8.9-8
							h50.3c3.4,0,6.1-2.7,6.1-6.1v-29.6C322.2,175,319.5,172.3,316.1,172.3z"/>
						<g>
							<circle class="st10" cx="267.3" cy="193.6" r="2.7"/>
							<circle class="st10" cx="283.9" cy="193.6" r="2.7"/>
							<circle class="st10" cx="299.3" cy="193.6" r="2.7"/>
						</g>
					</g>
					<g>
						<g>
							<path class="st11" d="M101.1,251.8c0-7.2-5.1-14.5-11.4-14.5c-6.3,0-11.4,7.3-11.4,14.5c0,7.2,5.1,13.1,11.4,13.1
								C96,264.9,101.1,259,101.1,251.8z"/>
							<path class="st12" d="M89.7,237.3c-1,0-2,0.2-2.9,0.6c4.9,1.8,8.5,7.9,8.5,13.9c0,6.1-3.6,11.2-8.5,12.7
								c0.9,0.3,1.9,0.5,2.9,0.5c6.3,0,11.4-5.9,11.4-13.1C101.1,244.5,96,237.3,89.7,237.3z"/>
						</g>
						<g>
							<path class="st6" d="M76.7,260.3l2,18.5c0.3,2.3,2.2,4.1,4.5,4.1h11.8c2.3,0,4.3-1.8,4.5-4.1l2-18.5c0.1-1-0.7-1.9-1.7-1.9
								H78.4C77.4,258.4,76.6,259.3,76.7,260.3z"/>
							<path class="st3" d="M78.4,261.2H100c0.7,0,1.2,0.4,1.5,0.9l0.2-1.8c0.1-1-0.7-1.9-1.7-1.9H78.4c-1,0-1.8,0.9-1.7,1.9
								l0.2,1.8C77.2,261.6,77.7,261.2,78.4,261.2z"/>
							<path class="st3" d="M100,258.4h-7.5c1,0,1.8,0.9,1.7,1.9l-2,18.5c-0.3,2.3-2.2,4.1-4.5,4.1h7.5c2.3,0,4.3-1.8,4.5-4.1
								l2-18.5C101.8,259.3,101,258.4,100,258.4z"/>
						</g>
					</g>
					<g>
						<g>
							<g>
								<polygon class="st13" points="194.6,389.1 193.9,394.5 197.9,399.7 208.3,394.6 209.4,389.7 196.5,387.8 								"/>
								<path class="st8" d="M203,406.4l1.1-1.3c0.2-0.2,0.6-0.2,0.8,0l1.1,1.3c0.4,0.5,1.1,0.8,1.7,0.8l24-0.4
									c0.5-0.5,0.6-1.3,0-1.8c-3.5-3.6-22.5-9.7-23.4-10.2c-0.9-0.5-6.7,4-14.4-0.2c0,0-1.2,6-1.4,9.9c-0.1,1.6,1.2,2.9,2.8,2.9
									l6.1-0.1C202,407.2,202.6,406.9,203,406.4z"/>
								<path class="st8" d="M150.6,298.6c0,0-10,11,8.3,23c12.8,8.4,22.9,5.8,30.9,10.9c1.9,1.2,3.3,3,3.5,5.2l0.4,51.5l1,0.5
									c4.8,2.4,10.5,2.5,15.4,0.2l0,0l7.3-58.8c0.3-4.1-1.9-7.5-4.4-10.7c-14-17.8-38.7-23.8-44.9-24.8
									C159.8,294.3,150.6,298.6,150.6,298.6z"/>
							</g>
							<g>
								<polygon class="st13" points="154.9,389.1 154.1,394.5 158.1,399.7 168.5,394.8 169.7,389.9 156.8,387.8 								"/>
								<path class="st8" d="M163,406.5l1.1-1.3c0.2-0.2,0.6-0.2,0.8,0l1.1,1.3c0.4,0.5,1.1,0.8,1.7,0.8l24-0.1
									c0.5-0.5,0.6-1.3,0.1-1.8c-3.5-3.6-22.3-10-23.3-10.5c-0.9-0.5-6.8,3.9-14.4-0.4c0,0-1.3,6-1.6,9.9
									c-0.1,1.6,1.1,2.9,2.7,2.9l6.1,0C162,407.3,162.6,407,163,406.5z"/>
								<path class="st8" d="M120.3,289c0,0-12.1,13.5,5.4,28.7c12.3,10.7,23.3,6.1,31,12.6c1.8,1.5,3.1,3.6,2.9,6l-5.5,52.4
									l0.4,0.3c4.8,3.1,10.9,3.5,16.1,1.1l0,0l13.7-55.2c0.9-4.2-1-8.1-3.1-11.8c-12.1-20.7-31.2-33-37.6-35
									C135.1,285.4,120.3,289,120.3,289z"/>
							</g>
							<path class="st14" d="M186.9,331.1c-0.9-0.4-1.9-0.7-2.8-1c-0.5-2.5-1.7-4.8-3.1-7.1c-6-10.2-13.7-18.4-20.8-24.3
								c4.4-0.7,6.6-1.7,7.8-2.9c2.4,0.4,7.3,1.5,13.1,3.6C187.1,309.2,187.1,325.3,186.9,331.1z"/>
						</g>
						<path class="st6" d="M152.8,217.8c0,0-17.4-2.3-24.7,11.3c-7.2,13.6-18.1,66.8-8.6,68.4c4.2,0.7,15.4,3.5,27.7,2.6
							c17-1.2,20.7-2.8,21.9-6l10.8-49.6c0.3-6.8-2.8-13.4-8.2-17.5C163.1,220.3,152.8,217.8,152.8,217.8z"/>
						<path class="st3" d="M179.9,240c0,0,0.2,29.9,9.6,31.7c9.4,1.8,34.4,1.2,34.4,1.2v9.5h-53.6L179.9,240z"/>
						<path class="st15" d="M167,226.5l2.1-10.6l-13.7-10.4l-2.6,12.5C152.7,217.9,157.1,237,167,226.5z"/>
						<path class="st8" d="M184.4,195.8c0,0-7.2,3.5-17.7-2.9c0,0-2.4,4.4-9.5,8.3c0,0-3.7-6.1-5.8-1.5c-0.6,1.4-0.9,2.6-1,3.7
							c-6.6-8.5-1.9-19.7,4.2-25.8c5.8-5.7,18.4-3.5,26.3-0.3c8.4,3.4,9.9-2.5,9.9-2.5C201.5,189.7,184.4,195.8,184.4,195.8z"/>
						<path class="st13" d="M157.3,201.2c0,0-3.7-6.1-5.8-1.5c-2.6,5.6,0.3,9.1,3.8,9.1c0,0,2.7,14.5,16.1,13.5
							c13.3-1,15.2-22.4,13.1-26.4c0,0-7.2,3.5-17.7-2.9C166.8,192.9,164.3,197.3,157.3,201.2z"/>
						<g>
							<path class="st6" d="M272.7,235.1h-55.6c-2.7,0-5.1,1.9-5.6,4.6l-7.4,36.3h67.4l6.9-34C279.1,238.4,276.4,235.1,272.7,235.1z
								"/>
							<path class="st16" d="M272.6,276H178c-0.8,0-1.4,0.6-1.4,1.4v3.6c0,0.8,0.6,1.4,1.4,1.4h94.6c0.8,0,1.4-0.6,1.4-1.4v-3.6
								C274,276.6,273.4,276,272.6,276z"/>
							<path class="st3" d="M271.2,276h-67.9c1.5,0,2.7,1.2,2.7,2.7v0.9c0,1.5-1.2,2.7-2.7,2.7h67.9c1.5,0,2.7-1.2,2.7-2.7v-0.9
								C274,277.2,272.8,276,271.2,276z"/>
						</g>
						<path class="st6" d="M182.3,274c-10.8-1.3-41.2-4.4-46.4-4.9c-6.6-0.7,7.7-27.2,9.3-36.2c1.6-9.1-5.3-9.4-5.3-9.4
							c-3.9-0.5-8.1,0-11.8,5.5c-7.4,11.2-15.7,44-11.3,52.1c0.5,1,1.5,1.5,2.6,1.5h62.9V274z"/>
						<path class="st3" d="M182.3,274c0,0-39.1-2.7-47.5-3.8c-6.5-0.9,7.1-28,8.7-37.1s-5.4-8.7-5.4-8.7c-1.8-0.2-4.3,0-6.1,0.6
							c2.6-1.7,5.4-1.8,8-1.5c0,0,6.9,0.3,5.3,9.4c-1.6,9.1-13.8,35-9.7,36C140.6,270.1,171.5,272.8,182.3,274z"/>
						<path class="st13" d="M182.3,282.8h14.6c1.1,0,1.8-1.2,1.2-2.1c-1.4-2.1-3.5-5.1-5.1-5.6c-0.9-0.3-8,0-10.6,0.2V282.8z"/>
						<path class="st17" d="M184.4,195.8c0,0-1.2,0.6-3.3,0.8c-0.2,1-0.5,2.9-0.7,4.7c-0.2,2.6,1,10.5,0.2,10.6
							c-0.8,0.1-2.4-0.1-2.4-0.1s-1.2,11.5-12.7,9.6c-0.1,0-0.2,0-0.3,0c1.7,0.6,3.7,0.9,6.1,0.8
							C184.7,221.1,186.6,199.8,184.4,195.8z"/>
					</g>
					<g>
						<g>
							<path class="st11" d="M351.6,362.6c0,0,18.3-9.1,13.3-22.9c-5-13.8-8.1-14.4,1.5-22.1c9.5-7.8,23.3-27.3,5.9-28.7
								c-17.4-1.5-16.6,21.7-31.1,24.9C326.7,317.1,318.8,377.7,351.6,362.6z"/>
							<path class="st12" d="M337.2,364c3.5,1.6,8.2,1.5,14.4-1.4c0,0,18.3-9.1,13.3-22.9c-5-13.8-8.1-14.4,1.5-22.1
								c9.5-7.8,23.3-27.3,5.9-28.7c-1.7-0.1-3.3,0-4.6,0.2c4.9,2,9.8,6.1,3.5,13.6c-10.5,12.5-16.1,16.9-14.9,24.9
								C357.4,335.5,356.7,353.4,337.2,364z"/>
						</g>
						<g>
							<path class="st11" d="M320.5,362.2c0,0-16.1-0.6-15.2-12.2c0.9-11.6,1.3-12-8.8-15.7c-17.9-6.4-3.7-40.8,10.8-19.2
								c10.1,15,14.5,11.6,21.1,12.8C335,329.1,349.4,367.3,320.5,362.2z"/>
							<path class="st18" d="M328.4,327.9c-6.6-1.2-11,2.2-21.1-12.8c-7.6-11.3-15.1-7.3-18,0.1c4.3-1.3,10.8-2.1,11.6,4.9
								c1.1,9.1,22.2,23.9,21.8,42.4c0.3,0,0.6,0.1,0.8,0.1c3.1-8.1,7.2-18.7,10.6-27.7C332.4,331,330.2,328.2,328.4,327.9z"/>
						</g>
						<g>
							<path class="st10" d="M324.3,361.7c0,0-20-19.6-13.2-22.9c6.8-3.3,20.2,7.5,12.7-4.2c-7.5-11.6-16.2-29.8-5.8-26.9
								c10.3,2.9,11.1,6,9.8-7.6c-1.7-17.5,8.1-26.6,17.4-20.9c9.2,5.7-7.9,44.4-1.5,40.2c6.4-4.2,11.6-7.7,13-2.6
								c1.3,5.1-18.2,24.9-11,21.5c9-4.2,10.3,3.3,7.5,7.9C350.2,350.9,338.3,378.4,324.3,361.7z"/>
							<path class="st19" d="M353.1,346.3c2.9-4.6,1.5-12.1-7.5-7.9c-7.3,3.4,12.3-16.5,11-21.5s-6.6-1.5-13,2.6
								c-6.4,4.2,10.8-34.5,1.5-40.2c-4.3-2.7-8.7-2.1-12,1c4.8,1.2,8.6,5,6,15.4c-5.6,22-9,40.3,1.2,34.9
								c9.7-5.1-11.2,18.3-11.4,35.1C340.9,372.5,350.5,350.4,353.1,346.3z"/>
						</g>
						<g>
							<path class="st6" d="M310.4,364l3.9,35c0.5,4.4,4.2,7.7,8.6,7.7h22.3c4.4,0,8.1-3.3,8.6-7.7l3.9-35c0.2-1.9-1.3-3.6-3.2-3.6
								h-40.9C311.7,360.4,310.2,362.1,310.4,364z"/>
							<path class="st3" d="M354.5,360.4h-14.2c1.9,0,3.4,1.7,3.2,3.6l-3.9,35c-0.5,4.4-4.2,7.7-8.6,7.7h14.2c4.4,0,8.1-3.3,8.6-7.7
								l3.9-35C357.9,362.1,356.4,360.4,354.5,360.4z"/>
						</g>
					</g>
					<g>
						<g>
							<path class="st5" d="M313.4,282.7H69.1c-1.4,0-2.5,1.1-2.5,2.5v6.3c0,1.4,1.1,2.5,2.5,2.5h244.3c1.4,0,2.5-1.1,2.5-2.5v-6.3
								C315.9,283.8,314.8,282.7,313.4,282.7z"/>
							<path class="st20" d="M311,282.7H71.5c-2.7,0-4.9,2.2-4.9,4.9v1.6c0,0.5,0.1,1,0.3,1.5c0.6-2,2.4-3.4,4.6-3.4H311
								c2.2,0,4,1.4,4.6,3.4c0.1-0.5,0.3-1,0.3-1.5v-1.6C315.9,284.9,313.7,282.7,311,282.7z"/>
						</g>
						<g>
							<g>
								<g>
									<polygon class="st10" points="147.2,406.9 139.2,406.9 83.5,294.1 91.5,294.1 									"/>
								</g>
							</g>
							<g>
								<g>
									<polygon class="st10" points="59.1,406.9 67.1,406.9 122.8,294.1 114.8,294.1 									"/>
								</g>
							</g>
							<g>
								<g>
									<polygon class="st10" points="319.7,406.9 311.7,406.9 256,294.1 264,294.1 									"/>
								</g>
							</g>
							<g>
								<g>
									<polygon class="st10" points="231.5,406.9 239.5,406.9 295.2,294.1 287.2,294.1 									"/>
								</g>
							</g>
							<g>
								<g>
									<polygon class="st21" points="93.7,298.5 91.5,294.1 83.5,294.1 85.7,298.5 									"/>
								</g>
							</g>
							<g>
								<g>
									<polygon class="st21" points="120.6,298.5 122.8,294.1 114.8,294.1 112.6,298.5 									"/>
								</g>
							</g>
							<g>
								<g>
									<polygon class="st21" points="266.2,298.5 264,294.1 256,294.1 258.2,298.5 									"/>
								</g>
							</g>
							<g>
								<g>
									<polygon class="st21" points="293,298.5 295.2,294.1 287.2,294.1 285,298.5 									"/>
								</g>
							</g>
						</g>
					</g>
				</g>
			</g>
		</g>
	</g>
</g>
</svg>
