<?xml version="1.0" encoding="utf-8"?>
<!-- Generator: Adobe Illustrator 24.0.1, SVG Export Plug-In . SVG Version: 6.00 Build 0)  -->
<svg version="1.1" xmlns="http://www.w3.org/2000/svg" xmlns:xlink="http://www.w3.org/1999/xlink" x="0px" y="0px"
	 viewBox="0 0 1900 400" style="enable-background:new 0 0 1900 400;" xml:space="preserve">
<style type="text/css">
	.st0{fill:#FFFFFF;}
	.st1{fill:#6B6A66;}
	.st2{fill:url(#SVGID_1_);}
	.st3{fill:url(#SVGID_2_);}
	.st4{fill:url(#SVGID_3_);}
	.st5{fill:url(#SVGID_4_);}
	.st6{fill:url(#SVGID_5_);}
	.st7{fill:url(#SVGID_6_);}
	.st8{opacity:0.15;}
	.st9{fill:#5B5B5C;}
	.st10{fill:#FAFAFA;}
	.st11{fill:#FFB94D;}
	.st12{fill:#F5F5F5;}
	.st13{fill:#3B51A9;}
	.st14{fill:#D94D72;}
	.st15{fill:#E8E3E4;}
	.st16{fill:#7D99DA;}
	.st17{fill:#FE7D00;}
	.st18{fill:#206A94;}
	.st19{fill:#00B6DF;}
	.st20{fill:#0E5680;}
	.st21{fill:#C9DFDD;}
	.st22{fill:#E3DFD8;}
	.st23{fill:#A2ACB0;}
	.st24{fill:#FFFBF3;}
	.st25{fill:#D4D0C9;}
	.st26{fill:#DB9C5B;}
	.st27{fill:#FFB56B;}
	.st28{fill:#514D57;}
	.st29{fill:#3E3B42;}
	.st30{fill:#EEA987;}
	.st31{fill:#EBD9D0;}
	.st32{fill:#353A3D;}
	.st33{fill:#EB4747;}
	.st34{fill:#2B2B2B;}
	.st35{fill:#163342;}
	.st36{fill:url(#SVGID_7_);}
	.st37{fill:url(#SVGID_8_);}
	.st38{fill:url(#SVGID_9_);}
	.st39{fill:url(#SVGID_10_);}
	.st40{fill:#344052;}
	.st41{fill:#EEA886;}
	.st42{fill:#EDDAD3;}
	.st43{fill:#1E3A5E;}
	.st44{fill:#393D63;}
	.st45{fill:#4A4A4A;}
	.st46{fill:#A77860;}
	.st47{fill:#162D40;}
	.st48{fill:#DB9C7C;}
	.st49{fill:#B88CB5;}
	.st50{fill:#1D3B54;}
	.st51{fill:#323657;}
	.st52{fill:#B8883D;}
	.st53{fill:#5C544D;}
	.st54{fill:#3C4145;}
	.st55{fill:#33373B;}
	.st56{fill:#E2D2CA;}
	.st57{fill:#3468AB;}
	.st58{fill:#565D63;}
	.st59{fill:#C98462;}
	.st60{fill:#DE9D7D;}
	.st61{fill:#FAC5B1;}
	.st62{fill:#E55353;}
	.st63{fill:#D88A51;}
	.st64{fill:#7D699B;}
	.st65{fill:#AC887B;}
</style>
<g id="Layer_1">
	<g>
		<rect class="st0" width="1900" height="400"/>
	</g>
</g>
<g id="Layer_2">
	<g>
		<g>
			<rect y="291.8" class="st1" width="1900" height="108.2"/>
			<linearGradient id="SVGID_1_" gradientUnits="userSpaceOnUse" x1="639.7633" y1="394.0922" x2="639.7633" y2="346.1951">
				<stop  offset="0" style="stop-color:#6B6A66"/>
				<stop  offset="1" style="stop-color:#42413E"/>
			</linearGradient>
			<path class="st2" d="M661.4,335c-0.9,0.6-2.3,2.8-3.5,4.8c-1.4,3-3.3,7.1-3.3,7.1c-0.8,1.6,0.7,29.9,1.2,31.6
				c0.5,1.7,1.1,6.6,0.7,8.5c-0.1,0.3-0.1,0.8-0.1,1.3c0.4,0,0.7-0.1,1.1-0.1c0.1,1.7,0.3,7.2,0.4,11.7h-22.9c1.5-4.5,2-6.7,0.6-9.7
				c0,0.1,0.7,0.7,3.8,0.4c0-0.4,0.1-0.8,0.1-1.3c0.3-2.7-0.6-6.5-1.3-7.5c-2-2.8-4-5.2-8.5-15.6c-1.2-2.7-4.8-10.2-6.1-12.9l-0.1,0
				c0,0-0.1-0.2-0.3-0.4c-1.9-0.1-2.9-1.8-3.3-3.3l-3-7.6l0.5-0.3l2.6,5c0-1.8-1.1-5-0.7-6.5c0.4-1.8,5.5-4.2,6.5-4.8
				c1-0.5,3,0.1,1.7,2.6c-0.5,1-0.8,4-1,6.4c0,2.2,0.1,4.8,0.2,6.4l0.1,0c0.9,3,17.9,22.6,19.1,24.9c0.4,0.8,0.9,1.9,1.3,3.1
				c-0.2-1.7-0.5-3.3-0.7-4.9c-0.4-3.6,3-21,4.3-27.4c-1.4-1-1.6-2.8-1.3-4.3l0.7-8.2l0.6,0l0.1,5.6c0.8-1.7,1.2-4.9,2.3-6.2
				c1.2-1.5,6.8-1.3,7.9-1.4C662.1,331.9,663.7,333.4,661.4,335z"/>
			<linearGradient id="SVGID_2_" gradientUnits="userSpaceOnUse" x1="851.8983" y1="387.3434" x2="851.8983" y2="357.2816">
				<stop  offset="0" style="stop-color:#6B6A66"/>
				<stop  offset="1" style="stop-color:#42413E"/>
			</linearGradient>
			<polygon class="st3" points="944.1,361.5 944.1,400 759.7,400 759.7,361.5 769.9,361.5 769.9,396.5 933.9,396.5 933.9,361.5 			
				"/>
			<g>
				<linearGradient id="SVGID_3_" gradientUnits="userSpaceOnUse" x1="826.9948" y1="404.7327" x2="826.9948" y2="386.866">
					<stop  offset="0" style="stop-color:#6B6A66"/>
					<stop  offset="1" style="stop-color:#42413E"/>
				</linearGradient>
				<path class="st4" d="M836.7,400h-14c2.4-10.9,5.3-23.6,5.9-23.8c0.1,0,0.4-0.1,0.6-0.1c0,0,0.3-2.5,0.5-3.6c0,0-4.4-2.5-6-3.4
					c-1.6-0.9-6.5-1.4-6.3-2.3c0.2-0.9,1.6-3.1,8.2-3c6.6,0.1,9.8-0.4,10.5,0.7c0.1,0.2,0.2,0.6,0.2,1c0,2.3-1.2,7.3-1.2,7.3
					l0.4,3.8c0.3,0,0.5,0.1,0.5,0.1S836.7,392.7,836.7,400z"/>
				<linearGradient id="SVGID_4_" gradientUnits="userSpaceOnUse" x1="801.3414" y1="404.7326" x2="801.3414" y2="386.8661">
					<stop  offset="0" style="stop-color:#6B6A66"/>
					<stop  offset="1" style="stop-color:#42413E"/>
				</linearGradient>
				<path class="st5" d="M812.2,380.7C812.2,380.7,812.2,380.7,812.2,380.7c0,0,1.8-6,0.5-8.2c-1.2-2.3-5.3-2.7-6.7-2.5
					c-1.5,0.1-5.5,1.5-9.2,1.3c-3.7-0.2-8.1,0.8-7,3.1c1.1,2.3,9.2,1.6,11.7,3.7c2.5,2.1,4.7,2.4,4.7,2.4l-0.4,2.5l-0.6-0.2
					c0,0-3.9,8.1-8.2,17.3h12c1.9-8.3,3.4-15,3.4-15.3l-0.6-0.2C811.9,383.5,812.2,381.5,812.2,380.7z"/>
			</g>
			<linearGradient id="SVGID_5_" gradientUnits="userSpaceOnUse" x1="1139.1362" y1="391.0182" x2="1139.1362" y2="345.0476">
				<stop  offset="0" style="stop-color:#6B6A66"/>
				<stop  offset="1" style="stop-color:#42413E"/>
			</linearGradient>
			<path class="st6" d="M1184,347c-1.1-0.4-2.3-0.5-3.4-0.6c0-0.7,0.1-3.5,0.7-5.6c0.7-2.5-1.2-8.3-1.2-8.3h-1.1v4.5
				c-0.9-0.1-4-2.9-5-3.7c-1-0.8-2.3-0.8-6.3-1c-4-0.2-4.4,2.1-3.8,2.9c0.6,0.8,2.7,1.1,3.8,1.6c1.1,0.5,5.3,5.1,6.5,6.2
				c1,1,1.7,3.7,1.8,4.1c-0.1,0-0.2,0.1-0.2,0.1c0.1,0.9,0,32,0,34.7c0,2.8-0.8,5.9-1,9.1c-0.1,2-1,5.5-2,9.2h12.5
				c-0.1-1.1-0.3-2-0.3-2.6c-0.5-3.6,0-8.3,1.2-21.4C1187.1,362.9,1184,347,1184,347z M1166.1,396c-1.7-4.5-0.3-9.2,0-20.4
				c0.3-11.2-5.1-30.5-5.1-30.5c-0.7-0.4-1.4-0.6-2.1-0.7c0.3-1.4,0.9-4.6,0.9-6c0-1.8-1.6-6.9-1.6-6.9h-1.3c0,0,0.4,4.8-0.8,4.9
				c-1.2,0-4.1-3.9-5.9-4.6c-1.5-0.5-8.4-1-10.3,0h-1.4c-6.8-0.1-4.9,2.8-4.2,3.5c1,0.9,3.5,1.3,5.2,2.2c1.6,0.9,3.3,2.9,3.3,2.9
				c0,0.2,0,0.3-0.1,0.5l-0.6,0c0,0-5.8,35.1-7.3,38.7c-0.9,2.1-3.9,12.2-6.3,20.5h15.7c0.3-2.3,0.7-4.6,0.9-6.9
				c0.8-8.5,4.3-28.5,4.4-33.1c0.1-4.5-0.5-19-0.5-19l-0.6,0l0-0.4c0,0,0.2-0.6,0.4-1.6c1.2,1.1,2.3,2.1,2.7,2.4
				c0.8,0.5,2.1,3,2.4,3.6c-0.2,0.1-0.4,0.2-0.4,0.2c1.8,12.4,1.9,37.5,1.7,39c-0.2,1.5-1.5,8.4-1.1,9.9c0.2,0.7,0.5,3.1,0.8,5.9
				h13.4c0-0.1-0.1-0.2-0.2-0.2C1167.2,398.2,1166.5,396.9,1166.1,396z M1111.9,340.8h-1.9l0-0.3c0,0,1.2-4.8,1.2-7.1
				c0-0.5-0.1-0.8-0.2-1c-0.7-1.1-4-0.5-10.8-0.7c-9.6-0.3-8.4,2.4-7.7,3.1c1,0.9,7,1.7,8.6,2.6c1.6,0.9,3.3,2.9,3.3,2.9
				c0,0.2,0,0.3-0.1,0.5h-1.3c1.3,4.1,2.7,37.8,3,40.6c0.2,2,0.4,11.8,0.7,18.6h16.6c-2.5-7.1-4.7-15.5-4.7-23.1
				C1118.6,365.3,1111.9,340.8,1111.9,340.8z"/>
			<linearGradient id="SVGID_6_" gradientUnits="userSpaceOnUse" x1="1016.5126" y1="375.9565" x2="1016.5126" y2="331.8777">
				<stop  offset="0" style="stop-color:#6B6A66"/>
				<stop  offset="1" style="stop-color:#42413E"/>
			</linearGradient>
			<path class="st7" d="M1036.6,387.2c-0.2-0.1-1-0.5-1.4-0.7c-1.1-3.9-2.2-7.8-2.2-8.8c-0.2-2.2,1.2-10,0-13.3
				c-1.1-3.1-4.9-19-6.7-22c0,0,0,0,0,0c-0.2-0.5,0.3-5,0.3-6.6v-9.5l-12.4,2.6c-1.5,0-2.8,0.3-3.6,0.7l-1.2,0.2
				c-5.5-0.8-5.8,0.6-5.7,2c0.2,1.4,2.9,1.7,4,1.9c1.1,0.2,4,2.8,5.3,3.4c1.3,0.6,2.2,3,2.2,3v0c0,0.1-0.1,0.2-0.1,0.4
				c-0.2,2.3-13.4,31.1-13.8,32.3c-0.4,1-2.1,3.2-3.3,6.7c-0.5,0-2.9,0.1-3.4,0.1c0,0.6,9.4,19.7,9.7,20.2h33.9
				C1038.3,400,1036.6,387.2,1036.6,387.2z M1017.2,381.1v-0.5h-3.1c0,0-2.2-0.3-3.6-0.4c-0.3-2.4,0.3-4.2,0.3-5.3
				c0-1.9,5.8-10.5,5.6-14.5c-0.3-3.9,3.2-17.7,3.2-18.8c0.5-0.7,0.7-1.7,0.9-2.6c0.9,0.7,2,2.7,2,2.7c0.6,1.7,1.3,32,1,34.7
				c-0.2,1.8,0.1,4.3,0.4,6.1C1022.3,382.2,1022,382,1017.2,381.1z"/>
			<g class="st8">
				<g>
					<g>
						<rect x="537.4" y="298.4" class="st9" width="102.2" height="101.6"/>
					</g>
					<g>
						<rect x="541.3" y="302.5" class="st10" width="94.3" height="97.5"/>
					</g>
					<g>
						<path class="st11" d="M631.5,307.3v70c0,0,0,0,0,0V400h-86.1v-92.7H631.5z"/>
					</g>
					<g>
						<path class="st12" d="M631.5,359.1c0,0-62.6-1.7-46.5-11.3c16.1-9.6-39.6-13.9-39.6-13.9v-26.5h86.1V359.1z"/>
					</g>
					<g>
						<path class="st13" d="M631.5,377.3V400h-54.4c2.2-8.4,8.3-16.1,24.5-10.5C631.3,399.8,631.5,377.9,631.5,377.3z"/>
					</g>
					<g>
						<path class="st14" d="M574.1,368.2c-8.2,6.3-14.6,20.7-18.5,31.8h-10.2v-80.1c0,0,8,6.9,15.9,15.7
							C571.8,347.2,582.3,362,574.1,368.2z"/>
					</g>
				</g>
				<g>
					<g>
						<rect x="668.5" y="331.2" class="st9" width="76.2" height="68.8"/>
					</g>
					<g>
						<rect x="672" y="334.6" class="st0" width="69.3" height="65.4"/>
					</g>
					<g>
						<rect x="675.2" y="337.8" class="st15" width="62.8" height="62.2"/>
					</g>
					<g>
						<rect x="675.2" y="337.8" class="st15" width="62.8" height="62.2"/>
					</g>
					<g>
						<polygon class="st9" points="753.2,400 753.2,298.4 840.4,298.4 840.4,400 789.1,400 						"/>
					</g>
					<g>
						<polygon class="st10" points="757.4,400 757.4,302.4 836.3,302.4 836.3,400 789.1,400 						"/>
					</g>
					<g>
						<rect x="761.6" y="306.5" class="st16" width="70.5" height="93.5"/>
					</g>
					<g>
						<polygon class="st16" points="738,349.9 725.9,349.9 732.8,343 728,343 717.5,353.5 704.1,353.5 692.8,364.8 708.6,364.8 
							696.4,377 724.2,377 724.2,385.8 738,368.9 						"/>
					</g>
					<g>
						<polygon class="st17" points="710.7,372.3 710.7,391.3 703.6,400 696.9,400 696.9,399.4 675.2,399.4 675.2,393.3 681.3,387.2 
							675.2,387.2 675.2,377.5 676.8,375.8 690.2,375.8 700.6,365.4 705.4,365.4 698.6,372.3 						"/>
					</g>
					<g>
						<polygon class="st10" points="711.1,337.8 697.1,337.8 675.2,359.8 675.2,373.7 						"/>
					</g>
					<g>
						<rect x="849" y="331.2" class="st9" width="76.2" height="68.8"/>
					</g>
					<g>
						<rect x="852.5" y="334.6" class="st0" width="69.3" height="65.4"/>
					</g>
					<g>
						<rect x="855.7" y="337.8" class="st15" width="62.8" height="62.2"/>
					</g>
					<g>
						<rect x="855.7" y="337.8" class="st15" width="62.8" height="62.2"/>
					</g>
					<g>
						<path class="st15" d="M786.1,399.8c-3.6-0.9-3.6-5.4-3-12c0.7-6.4-1.1-5-3.2-8.1c-0.8-1.1-1.6-2.9-2.4-6
							c-2.8-11.2-7.6-10.5-1.8-15.3c5.8-4.9,12.3-2.3,4.6-7.9c-7.6-5.5-8.1-0.9-9.3-7.5c-1.2-6.6,5.8-7.8,3.7-13.8
							c-2.1-6-0.2-6.2-6.7-8.3c-6.5-2.1-6.5-14.4-6.5-14.4h52c0,0-21.5,12.6-15,26.4c5.6,12,15.6,14.5,9.4,18.4
							c-0.5,0.3-1.1,0.6-1.8,1c-0.6,0.3-1.4,0.6-2.2,1c-0.8,0.3-1.5,0.6-2.1,0.9c-1.7,0.8-3.1,1.6-4.4,2.5c-7.4,5.2-8,11.8-3.9,17
							c2.4,3,3.8,8.3,3.8,13.4c0,2.1-0.3,4.2-0.8,6.1c-0.8,2.7-2.3,4.9-4.5,6c-0.3,0.2-0.7,0.3-1,0.4
							C790.3,399.7,786.9,400,786.1,399.8z"/>
					</g>
					<g>
						<path class="st15" d="M767.9,400c0.3-0.4,0.6-0.8,0.9-1.2c7.2-9.5,2.5-3.2,1.4-17.6c-0.8-9.4,4.8-6,9.8-1.6
							c2.6,2.3,5.1,4.9,6.4,6.1c3.5,3.1,3.1,8.2,5.6,13.4c0.1,0.3,0.3,0.6,0.4,0.9H767.9z"/>
					</g>
					<g>
						<polygon class="st0" points="810.2,400 806.8,400 806,399.2 806,400 803.3,400 794,390.6 794,383.7 						"/>
					</g>
					<g>
						<polygon class="st9" points="813.6,366 795,347.4 795,354.3 807,366.4 807,362.9 813.7,369.5 813.7,372.5 815.5,372.5 
							815.5,364.8 						"/>
					</g>
					<g>
						<polygon class="st0" points="806.1,347.9 787.5,329.3 787.5,336.2 799.5,348.2 799.5,344.7 806.2,351.3 806.2,354.3 
							808,354.3 808,346.7 						"/>
					</g>
					<g>
						<path class="st17" d="M918.5,355.5c0,0-11.2-4.3-24.5,6.8c-13.4,11.1-27.9,6.4-20.8-1.2c7.1-7.6,4.2-10.6-2.8-9.9
							c-6.9,0.7-17.5-2.8-4.2-5.7c13.4-2.9,19.3-1.9,22.9,0.5c3.6,2.4,7.1,8.5,10.2,1.5c3.1-7,2.9-8.8,2.9-8.8l5.5-0.8h10.6V355.5z"
							/>
					</g>
					<g>
						<path class="st16" d="M888.4,391.6c-3.9,5.1,1.1,7.4,5,8.4h-33.8c-0.3-1.3-0.6-4.6,1.2-9.3c2.4-6.3,0-13.2,0.2-18.2
							c0.2-5.1,0-3.8,4-3.6c4,0.2,0.4,1.2,0,9c-0.3,7.8,8,6.8,10.1,5.9c2.1-0.9,8.7-7.6,21-3.8C908.4,383.8,894.3,383.8,888.4,391.6
							z"/>
					</g>
				</g>
				<g>
					<g>
						<rect x="1082.6" y="302.9" class="st9" width="130.4" height="97.1"/>
					</g>
					<g>
						<rect x="1088.1" y="308.5" class="st0" width="119.3" height="91.5"/>
					</g>
					<g>
						<rect x="1092.4" y="312.7" class="st12" width="110.9" height="87.3"/>
					</g>
					<g>
						<path class="st11" d="M1203.2,368c0,0-5.9-22.1-36.1-17.1c-41.6,6.9-21.8,46.2-41.8,25.3c-20-20.9,17.4-16.4-6.1-30.8
							c-23.5-14.4-29.1-25.4-29.1-25.4v-7.3h113.1V368z"/>
					</g>
					<g>
						<path class="st18" d="M1175.3,350.2c-2.4,5.8-6.3,12.5-9.3,18c-4.2,7.8-4.2,21.5-5.1,31.8h-11c-1.1-7.2-0.4-16.6,4.3-25.6
							c4.3-8.2,6.9-16,8.4-22.6c2.5-10.5,2.4-17.7,2.4-17.7s3.5,0.7,10.2,3.5C1178.8,339.1,1177.9,344.1,1175.3,350.2z"/>
					</g>
					<g>
						<path class="st19" d="M1112.2,394.6c-0.8,1.8-1.2,3.6-1.2,5.4h-12.6c0.4-21.4-5.3-48.3-5.9-51.1c0.5,1.8,3.8,13.5,11.6,19.2
							C1112.5,374.3,1119,379.9,1112.2,394.6z"/>
					</g>
				</g>
				<g>
					<g>
						<rect x="1242.7" y="302.9" class="st9" width="104.8" height="97.1"/>
					</g>
					<g>
						<rect x="1246.9" y="307.2" class="st10" width="96.4" height="92.8"/>
					</g>
					<g>
						<rect x="1252" y="312.3" class="st20" width="86.1" height="86.1"/>
					</g>
					<g>
						<path class="st0" d="M1297.7,355.4c0-1.4-1.2-2.6-2.6-2.6c-1.4,0-2.6,1.2-2.6,2.6c0,1.4,1.2,2.6,2.6,2.6
							C1296.6,358,1297.7,356.8,1297.7,355.4z"/>
					</g>
					<g>
						<path class="st21" d="M1301.4,352.4c-1.3,0-2.6,0.3-3.7,0.8c-0.2,0.1-0.5,0.2-0.7,0.3c-0.7,0.4-1.4,0.9-2,1.5c0,0,0,0,0,0
							c-0.7,0.6-1.2,1.4-1.7,2.2c0,0,0,0,0,0c-0.2,0.4-0.4,0.9-0.6,1.4c-0.3,0.9-0.5,2-0.5,3v0.1c0.1,5,4.2,9.1,9.2,9.1
							c5.1,0,9.2-4.1,9.2-9.2C1310.5,356.5,1306.4,352.4,1301.4,352.4z M1301.4,370.1c-4.7,0-8.5-3.8-8.5-8.5c0-1,0.2-1.9,0.5-2.8
							c0.1-0.4,0.3-0.8,0.5-1.2c0.4-0.8,1-1.5,1.6-2.2c0.6-0.6,1.2-1,1.9-1.4c1.2-0.6,2.5-1,4-1c4.7,0,8.5,3.8,8.5,8.5
							C1309.9,366.3,1306.1,370.1,1301.4,370.1z"/>
					</g>
					<g>
						<path class="st21" d="M1308.9,348.4c-4.7,0-9,1.8-12.3,4.8c-0.6,0.6-1.1,1.1-1.6,1.8c0,0,0,0,0,0c-0.6,0.7-1.1,1.5-1.6,2.3
							c-0.2,0.4-0.5,0.8-0.7,1.3c-1.2,2.4-1.8,5-1.8,7.9c0,9.9,8.1,18,18,18c9.9,0,18-8.1,18-18
							C1326.9,356.5,1318.8,348.4,1308.9,348.4z M1308.9,383.8c-9.6,0-17.4-7.8-17.4-17.4c0-1.6,0.2-3.2,0.7-4.7
							c0.3-1,0.7-2,1.1-2.9c0.2-0.4,0.4-0.8,0.6-1.1c0.4-0.8,1-1.5,1.5-2.2c0.5-0.6,1.1-1.2,1.7-1.8c0.2-0.2,0.4-0.3,0.6-0.5
							c3-2.6,6.9-4.1,11.2-4.1c9.6,0,17.4,7.8,17.4,17.4C1326.3,376,1318.5,383.8,1308.9,383.8z"/>
					</g>
					<g>
						<path class="st21" d="M1310.9,312.3c0,0-24.6,3.2-36.2,43.1h-10.8c0,0-7.3,10.9-7.3,23.6h-4.6v-66.7
							C1252,312.3,1312.4,312.3,1310.9,312.3z"/>
					</g>
					<g>
						<path class="st11" d="M1293.5,329.3c0,0,27.3-3.3,33.1,9.6l3-20.7C1329.6,318.2,1308.9,312.1,1293.5,329.3z"/>
					</g>
				</g>
				<g>
					<g>
						<rect x="954.2" y="302.9" class="st9" width="104.8" height="97.1"/>
					</g>
					<g>
						<rect x="958.5" y="307.2" class="st0" width="96.4" height="92.8"/>
					</g>
					<g>
						<path class="st11" d="M1049.7,398.4v-86.1h-86.1v86.1H1049.7z M1040.2,355.2c0,3.4-0.7,6.6-2.1,9.5
							c-3.6,7.8-11.5,13.3-20.6,13.3c-3.2,0-6.3-0.7-9.1-1.9c5.6-2.5,10.1-7.2,12.2-13c-3.6,2.3-7.8,3.7-12.4,3.7
							c-4.4,0-8.4-1.2-11.9-3.4c-0.7-1.9-1.2-4-1.4-6.1c3.6-7.8,11.5-13.2,20.7-13.2c1.2,0,2.4,0.1,3.6,0.3c1.8,3.2,2.8,7,2.8,11
							c0,2.7-0.5,5.4-1.4,7.8c4.8-3.1,8.3-7.9,9.7-13.6c0.4-1.7,0.7-3.5,0.7-5.4c0-2.9-0.5-5.6-1.5-8.1
							C1035.9,339.9,1040.2,347.1,1040.2,355.2z"/>
					</g>
					<g>
						
							<rect x="963.6" y="312.3" transform="matrix(-1 -1.224647e-16 1.224647e-16 -1 2013.3218 710.7097)" class="st12" width="86.1" height="86.1"/>
					</g>
					<g>
						<path class="st16" d="M1008.2,366.7c4.6,0,8.8-1.4,12.4-3.7c-2.1,5.8-6.6,10.5-12.2,13c-5.5-2.4-9.9-7-12.1-12.7
							C999.8,365.5,1003.8,366.7,1008.2,366.7z"/>
					</g>
					<g>
						<path class="st16" d="M994.8,355.2c0-9.3,5.6-17.3,13.6-20.8c2.8-1.2,5.9-1.9,9.1-1.9c4.4,0,8.4,1.2,11.9,3.4
							c1,2.5,1.5,5.3,1.5,8.1c0,1.9-0.2,3.7-0.7,5.4c-1.4,5.7-4.9,10.5-9.7,13.6c0.9-2.4,1.4-5.1,1.4-7.8c0-4-1-7.7-2.8-11
							c-1.2-0.2-2.4-0.3-3.6-0.3c-9.2,0-17.1,5.4-20.7,13.2C994.8,356.6,994.8,355.9,994.8,355.2z"/>
					</g>
					<g>
						<path class="st9" d="M1019,345.2c-1.1-0.2-2.3-0.3-3.4-0.3c-8.4,0-16.1,4.9-19.7,12.4c0.2,1.8,0.6,3.6,1.2,5.3
							c3.4,2,7.2,3,11.1,3c4.2,0,8.3-1.2,11.9-3.5l2.5-1.6l-1,2.8c-2.2,6-6.8,11-12.7,13.6c-3,1.3-6.2,2-9.5,2
							c-1.3,0-2.5-0.1-3.8-0.3c-11.6-1.8-19.9-11.7-19.9-23.4c0-8,4-15.5,10.8-19.9c3.8-2.5,8.3-3.8,12.9-3.8c3.3,0,6.5,0.7,9.5,2
							c4.7,2.1,8.7,5.7,11.2,10.3L1019,345.2z M1017.3,343.1c-2.3-3.4-5.5-6.1-9.3-7.7c-2.7-1.2-5.7-1.8-8.7-1.8
							c-4.2,0-8.3,1.2-11.9,3.5c-6.2,4-9.9,10.8-9.9,18.2c0,10.7,7.7,19.8,18.3,21.5c1.1,0.2,2.3,0.3,3.4,0.3c3,0,6-0.6,8.7-1.8
							c4.5-2,8.2-5.5,10.5-9.8c-3.2,1.5-6.7,2.4-10.3,2.4c-4.4,0-8.7-1.2-12.4-3.5l-0.3-0.2l-0.1-0.3c-0.8-2-1.3-4.2-1.5-6.4l0-0.3
							l0.1-0.2c3.9-8.4,12.3-13.8,21.5-13.8C1016.1,343,1016.7,343,1017.3,343.1z"/>
					</g>
					<g>
						<path class="st9" d="M995.8,364.2c-1-0.6-2-1.3-2.9-2.1c-5.3-4.5-8.3-11.1-8.3-18.1c0-2.8,0.5-5.5,1.4-8.1
							c3.4-9.3,12.4-15.6,22.3-15.6c9.8,0,18.6,6.1,22.1,15.2c1,2.7,1.6,5.5,1.6,8.5c0,1.9-0.2,3.8-0.7,5.6
							c-1.4,5.9-5,10.9-10.1,14.2l-2.5,1.6l1-2.8c0.9-2.4,1.3-4.9,1.3-7.5c0-3.5-0.8-7-2.5-10.1c-1-0.1-2-0.2-3-0.2
							c-8.4,0-16.1,4.9-19.7,12.4c0.2,1.9,0.6,3.8,1.3,5.6L995.8,364.2z M1022.4,360.5c3.4-2.9,5.9-6.9,7-11.3
							c0.4-1.7,0.6-3.4,0.6-5.2c0-2.7-0.5-5.3-1.4-7.8c-3.2-8.4-11.4-14-20.3-14c-9.1,0-17.3,5.7-20.4,14.3
							c-0.9,2.4-1.3,4.9-1.3,7.5c0,6.4,2.8,12.4,7.7,16.6c0.1,0.1,0.3,0.2,0.4,0.3c-0.3-1.2-0.5-2.4-0.6-3.5l0-0.3l0.1-0.2
							c3.9-8.4,12.3-13.8,21.5-13.8c1.2,0,2.5,0.1,3.7,0.3l0.5,0.1l0.2,0.4c1.9,3.5,2.9,7.4,2.9,11.4
							C1022.9,357,1022.7,358.8,1022.4,360.5z"/>
					</g>
					<g>
						<path class="st17" d="M995.6,353.5l0.3,3.7c0.2,1.9,0.6,3.7,1.2,5.5c3.4,2,7.2,3,11.1,3c4.2,0,8.3-1.2,11.9-3.5l2.5-1.6
							l-1,2.8c-1.9,5.3-5.8,9.8-10.7,12.5c2.2,0.7,4.4,1.1,6.7,1.1c8.5,0,16.2-5,19.8-12.7l1.5-3.4l0.3,3.7c0.1,0.7,0.1,1.4,0.1,2.1
							c0,13.1-10.6,23.7-23.7,23.7c-8.6,0-16.6-4.7-20.8-12.3c-1.9-3.5-2.9-7.4-2.9-11.4c0-1.9,0.2-3.8,0.7-5.6
							c0.4-1.5,0.9-2.9,1.5-4.2L995.6,353.5z M1008.2,367.7c-4.4,0-8.7-1.2-12.4-3.5l-0.3-0.2l-0.1-0.3c-0.3-0.9-0.6-1.7-0.8-2.6
							c0,0.2-0.1,0.3-0.1,0.5c-0.4,1.7-0.6,3.4-0.6,5.2c0,3.7,0.9,7.3,2.7,10.5c3.8,6.9,11.1,11.3,19,11.3c11.4,0,20.8-8.8,21.7-20
							c-4.3,6.5-11.7,10.5-19.7,10.5c-3.3,0-6.5-0.7-9.5-2l-2-0.9l2-0.9c4.5-2,8.2-5.5,10.5-9.8
							C1015.3,366.9,1011.8,367.7,1008.2,367.7z"/>
					</g>
				</g>
			</g>
			<rect class="st22" width="1900" height="292"/>
			<rect y="272.7" class="st23" width="1900" height="19.1"/>
			<g>
				<rect x="537.4" y="223.3" class="st24" width="28.8" height="16.7"/>
				<rect x="540.5" y="227" class="st25" width="18.4" height="0.8"/>
				<rect x="540.5" y="229.8" class="st25" width="8.4" height="0.8"/>
				<rect x="540.5" y="232.7" class="st25" width="11.4" height="0.8"/>
			</g>
			<g>
				<rect x="672.5" y="223.3" class="st24" width="28.8" height="16.7"/>
				<rect x="675.6" y="227" class="st25" width="18.4" height="0.8"/>
				<rect x="675.6" y="229.8" class="st25" width="15.7" height="0.8"/>
				<rect x="675.6" y="232.7" class="st25" width="11.4" height="0.8"/>
			</g>
			<g>
				<rect x="954.2" y="223.3" class="st24" width="28.8" height="16.7"/>
				<rect x="957.4" y="227" class="st25" width="18.4" height="0.8"/>
				<rect x="957.4" y="229.8" class="st25" width="15.6" height="0.8"/>
				<rect x="957.4" y="232.7" class="st25" width="4.5" height="0.8"/>
			</g>
			<g>
				<rect x="1082.6" y="223.3" class="st24" width="28.8" height="16.7"/>
				<rect x="1085.7" y="227" class="st25" width="18.4" height="0.8"/>
				<rect x="1085.7" y="229.8" class="st25" width="9.7" height="0.8"/>
			</g>
			<g>
				<rect x="1242.7" y="223.3" class="st24" width="28.8" height="16.7"/>
				<rect x="1245.8" y="227" class="st25" width="12.8" height="0.8"/>
				<rect x="1245.8" y="229.8" class="st25" width="15.1" height="0.8"/>
				<rect x="1245.8" y="232.7" class="st25" width="4.6" height="0.8"/>
				<rect x="1245.8" y="235.6" class="st25" width="7.5" height="0.8"/>
			</g>
			<g>
				<g>
					<rect x="537.4" y="82.3" class="st9" width="102.2" height="125.2"/>
				</g>
				<g>
					<rect x="541.3" y="86.4" class="st10" width="94.3" height="117"/>
				</g>
				<g>
					<rect x="545.4" y="91.1" class="st11" width="86.1" height="107.5"/>
				</g>
				<g>
					<path class="st12" d="M631.5,146.8c0,0-62.6,1.7-46.5,11.3c16.1,9.6-39.6,13.9-39.6,13.9v26.5h86.1V146.8z"/>
				</g>
				<g>
					<path class="st13" d="M631.5,128.5c0,0,0.2-22.6-29.9-12.2c-30.1,10.4-25.3-25.2-25.3-25.2h55.2L631.5,128.5z"/>
				</g>
				<g>
					<path class="st14" d="M551,91.1c0,0,8.7,35.7,23.1,46.6c14.4,10.9-28.7,48.3-28.7,48.3V91.1H551z"/>
				</g>
			</g>
			<g>
				<g>
					<rect x="668.5" y="98.5" class="st9" width="76.2" height="76.2"/>
				</g>
				<g>
					<rect x="672" y="102" class="st0" width="69.3" height="69.3"/>
				</g>
				<g>
					<rect x="675.2" y="105.2" class="st15" width="62.8" height="62.8"/>
				</g>
				<g>
					<rect x="675.2" y="105.2" class="st15" width="62.8" height="62.8"/>
				</g>
				<g>
					<rect x="753.2" y="65.8" class="st9" width="87.2" height="141.6"/>
				</g>
				<g>
					<rect x="757.4" y="69.8" class="st10" width="78.9" height="133.7"/>
				</g>
				<g>
					<rect x="761.6" y="73.8" class="st16" width="70.5" height="125.5"/>
				</g>
				<g>
					<polygon class="st16" points="738,156 725.9,156 732.8,162.8 728,162.8 717.5,152.4 704.1,152.4 692.8,141.1 708.6,141.1 
						696.4,128.8 724.2,128.8 724.2,120.1 738,136.9 					"/>
				</g>
				<g>
					<polygon class="st17" points="710.7,133.6 698.6,133.6 705.4,140.5 700.6,140.5 690.2,130 676.8,130 675.2,128.4 675.2,118.7 
						681.3,118.7 675.2,112.5 675.2,106.5 696.9,106.5 696.9,105.2 703,105.2 710.7,114.5 					"/>
				</g>
				<g>
					<polygon class="st10" points="711.1,168 697.1,168 675.2,146.1 675.2,132.2 					"/>
				</g>
				<g>
					<rect x="849" y="98.5" class="st9" width="76.2" height="76.2"/>
				</g>
				<g>
					<rect x="852.5" y="102" class="st0" width="69.3" height="69.3"/>
				</g>
				<g>
					<rect x="855.7" y="105.2" class="st15" width="62.8" height="62.8"/>
				</g>
				<g>
					<rect x="855.7" y="105.2" class="st15" width="62.8" height="62.8"/>
				</g>
				<g>
					<path class="st15" d="M813.6,199.4c0,0-21.5-12.6-15-26.4c6.5-13.9,18.7-15,5.3-20.4c-13.4-5.3-15.5-14-10.4-20.4
						c5.1-6.4,5.8-23.3-2.5-25.8c-8.3-2.5-8.8,3-7.9,11.8c0.9,8.8-2.8,2.9-5.5,14c-2.8,11.2-7.6,10.5-1.8,15.3
						c5.8,4.9,12.3,2.3,4.6,7.9c-7.6,5.5-8.1,0.9-9.3,7.5c-1.2,6.6,5.8,7.8,3.7,13.8c-2.1,6-0.2,6.2-6.7,8.3
						c-6.5,2.1-6.5,14.4-6.5,14.4H813.6z"/>
				</g>
				<g>
					<path class="st15" d="M796.8,73.8c0,0-0.3,10.3-10.5,12.1c-10.2,1.8-16.9,7.9-10.4,11.6c6.5,3.7,20.4,1.9,16.9,7.7
						c-3.5,5.8-2.6,11.5-6.5,14.9c-3.9,3.4-17.3,18.8-16.2,4.5c1.2-14.3,5.8-8.1-1.4-17.6c-7.2-9.5-7.2-10.4-7.2-10.4V73.8H796.8z"
						/>
				</g>
				<g>
					<polygon class="st9" points="820,85.4 801.5,104 801.5,97.1 813.5,85 813.5,88.5 820.2,81.9 820.2,78.9 821.9,78.9 821.9,86.6 
											"/>
				</g>
				<g>
					<polygon class="st0" points="812.5,103.5 794,122.1 794,115.2 806,103.2 806,106.7 812.6,100.1 812.6,97.1 814.4,97.1 
						814.4,104.7 					"/>
				</g>
				<g>
					<polygon class="st9" points="813.6,139.9 795,158.4 795,151.5 807,139.5 807,143 813.7,136.4 813.7,133.4 815.5,133.4 
						815.5,141 					"/>
				</g>
				<g>
					<polygon class="st0" points="806.1,158 787.5,176.6 787.5,169.7 799.5,157.6 799.5,161.2 806.2,154.5 806.2,151.6 808,151.6 
						808,159.2 					"/>
				</g>
				<g>
					<path class="st17" d="M918.5,150.4c0,0-11.2,4.3-24.5-6.8c-13.4-11.1-27.9-6.4-20.8,1.2c7.1,7.6,4.2,10.6-2.8,9.9
						c-6.9-0.7-17.5,2.8-4.2,5.7c13.4,2.9,19.3,1.9,22.9-0.5c3.6-2.4,7.1-8.5,10.2-1.5c3.1,7,2.9,8.8,2.9,8.8l5.5,0.8h10.6V150.4z"
						/>
				</g>
				<g>
					<path class="st16" d="M897.3,105.2c0,0-14.7,1.3-8.8,9.1c5.9,7.8,19.9,7.8,7.6,11.6c-12.3,3.8-18.9-2.9-21-3.8
						c-2.1-0.9-10.4-1.9-10.1,5.9c0.3,7.8,4,8.9,0,9c-4,0.2-3.8,1.4-4-3.6c-0.2-5.1,2.3-12-0.2-18.2c-2.4-6.2-1-10-1-10H897.3z"/>
				</g>
			</g>
			<g>
				<g>
					<rect x="954.2" y="98.1" class="st9" width="104.8" height="104.8"/>
				</g>
				<g>
					<rect x="958.5" y="102.3" class="st0" width="96.4" height="96.4"/>
				</g>
				<g>
					<path class="st11" d="M963.6,107.5v86.1h86.1v-86.1H963.6z M973.1,150.6c0-3.4,0.7-6.6,2.1-9.5c3.6-7.8,11.5-13.3,20.6-13.3
						c3.3,0,6.3,0.7,9.1,1.9c-5.6,2.5-10.1,7.2-12.2,13c3.6-2.3,7.8-3.7,12.4-3.7c4.4,0,8.4,1.2,11.9,3.4c0.7,1.9,1.2,4,1.4,6.1
						c-3.6,7.8-11.5,13.2-20.7,13.2c-1.2,0-2.4-0.1-3.6-0.3c-1.8-3.2-2.8-7-2.8-11c0-2.7,0.5-5.4,1.4-7.8c-4.8,3.1-8.3,7.9-9.7,13.6
						c-0.4,1.7-0.7,3.5-0.7,5.4c0,2.9,0.5,5.6,1.5,8.1C977.4,166,973.1,158.8,973.1,150.6z"/>
				</g>
				<g>
					<rect x="963.6" y="107.5" class="st12" width="86.1" height="86.1"/>
				</g>
				<g>
					<path class="st16" d="M1005.1,139.2c-4.6,0-8.8,1.4-12.4,3.7c2.1-5.8,6.6-10.5,12.2-13c5.5,2.4,9.9,7,12.1,12.7
						C1013.6,140.4,1009.5,139.2,1005.1,139.2z"/>
				</g>
				<g>
					<path class="st16" d="M1018.5,150.6c0,9.3-5.6,17.3-13.6,20.8c-2.8,1.2-5.9,1.9-9.1,1.9c-4.4,0-8.4-1.2-11.9-3.4
						c-1-2.5-1.5-5.3-1.5-8.1c0-1.9,0.2-3.7,0.7-5.4c1.4-5.7,4.9-10.5,9.7-13.6c-0.9,2.4-1.4,5.1-1.4,7.8c0,4,1,7.7,2.8,11
						c1.2,0.2,2.4,0.3,3.6,0.3c9.2,0,17.1-5.4,20.7-13.2C1018.5,149.3,1018.5,150,1018.5,150.6z"/>
				</g>
				<g>
					<path class="st9" d="M994.3,160.6c1.1,0.2,2.3,0.3,3.4,0.3c8.4,0,16.1-4.9,19.7-12.4c-0.2-1.8-0.6-3.6-1.2-5.3
						c-3.4-2-7.2-3-11.1-3c-4.2,0-8.3,1.2-11.9,3.5l-2.5,1.6l1-2.8c2.2-6,6.8-11,12.7-13.6c3-1.3,6.2-2,9.5-2c1.3,0,2.5,0.1,3.8,0.3
						c11.6,1.8,19.9,11.7,19.9,23.4c0,8-4,15.5-10.8,19.9c-3.8,2.5-8.3,3.8-12.9,3.8c-3.3,0-6.5-0.7-9.5-2
						c-4.7-2.1-8.7-5.7-11.2-10.3L994.3,160.6z M996,162.8c2.3,3.4,5.5,6.1,9.3,7.7c2.7,1.2,5.7,1.8,8.7,1.8c4.2,0,8.3-1.2,11.9-3.5
						c6.2-4,9.9-10.8,9.9-18.2c0-10.7-7.7-19.8-18.3-21.5c-1.1-0.2-2.3-0.3-3.4-0.3c-3,0-6,0.6-8.7,1.8c-4.5,2-8.2,5.5-10.5,9.8
						c3.2-1.5,6.7-2.4,10.3-2.4c4.4,0,8.7,1.2,12.4,3.5l0.3,0.2l0.1,0.3c0.8,2,1.3,4.2,1.5,6.4l0,0.3l-0.1,0.2
						c-3.9,8.4-12.3,13.8-21.5,13.8C997.2,162.8,996.6,162.8,996,162.8z"/>
				</g>
				<g>
					<path class="st9" d="M1017.5,141.7c1,0.6,2,1.3,2.9,2.1c5.3,4.5,8.3,11.1,8.3,18.1c0,2.8-0.5,5.5-1.4,8.1
						c-3.4,9.3-12.3,15.6-22.3,15.6c-9.8,0-18.6-6.1-22.1-15.2c-1-2.7-1.6-5.5-1.6-8.5c0-1.9,0.2-3.8,0.7-5.6
						c1.4-5.9,5-10.9,10.1-14.2l2.5-1.6l-1,2.8c-0.9,2.4-1.3,4.9-1.3,7.5c0,3.5,0.8,7,2.5,10.1c1,0.1,2,0.2,3,0.2
						c8.4,0,16.1-4.9,19.7-12.4c-0.2-1.9-0.6-3.8-1.3-5.6L1017.5,141.7z M991,145.4c-3.4,2.9-5.9,6.9-7,11.3
						c-0.4,1.7-0.6,3.4-0.6,5.2c0,2.7,0.5,5.3,1.4,7.8c3.2,8.4,11.4,14,20.3,14c9.1,0,17.3-5.7,20.4-14.3c0.9-2.4,1.3-4.9,1.3-7.5
						c0-6.4-2.8-12.4-7.6-16.6c-0.1-0.1-0.3-0.2-0.4-0.3c0.3,1.2,0.5,2.4,0.6,3.6l0,0.3l-0.1,0.2c-3.9,8.4-12.3,13.8-21.5,13.8
						c-1.2,0-2.5-0.1-3.7-0.3l-0.5-0.1l-0.2-0.4c-1.9-3.5-2.9-7.4-2.9-11.4C990.4,148.9,990.6,147.1,991,145.4z"/>
				</g>
				<g>
					<path class="st17" d="M1017.8,152.4l-0.3-3.7c-0.2-1.9-0.6-3.7-1.2-5.5c-3.4-2-7.2-3-11.1-3c-4.2,0-8.3,1.2-11.9,3.5l-2.5,1.6
						l1-2.8c1.9-5.3,5.8-9.8,10.7-12.5c-2.2-0.7-4.4-1.1-6.7-1.1c-8.5,0-16.2,5-19.8,12.7l-1.5,3.4l-0.3-3.7
						c-0.1-0.7-0.1-1.4-0.1-2.1c0-13.1,10.6-23.7,23.7-23.7c8.6,0,16.6,4.7,20.8,12.3c1.9,3.5,2.9,7.4,2.9,11.4
						c0,1.9-0.2,3.8-0.7,5.6c-0.4,1.5-0.9,2.9-1.5,4.2L1017.8,152.4z M1005.1,138.2c4.4,0,8.7,1.2,12.4,3.5l0.3,0.2l0.1,0.3
						c0.3,0.9,0.6,1.7,0.8,2.6c0-0.2,0.1-0.3,0.1-0.5c0.4-1.7,0.6-3.4,0.6-5.2c0-3.7-0.9-7.3-2.7-10.5c-3.8-6.9-11.1-11.3-19-11.3
						c-11.4,0-20.8,8.8-21.7,20c4.3-6.5,11.7-10.5,19.7-10.5c3.3,0,6.5,0.7,9.5,2l2,0.9l-2,0.9c-4.5,2-8.2,5.5-10.5,9.8
						C998,139,1001.5,138.2,1005.1,138.2z"/>
				</g>
			</g>
			<g>
				<g>
					<rect x="1082.6" y="72.5" class="st9" width="130.4" height="130.4"/>
				</g>
				<g>
					<rect x="1088.1" y="78.1" class="st0" width="119.3" height="119.3"/>
				</g>
				<g>
					<rect x="1092.4" y="82.3" class="st12" width="110.9" height="110.9"/>
				</g>
				<g>
					<path class="st11" d="M1203.2,137.8c0,0-5.9,22.1-36.1,17.1c-41.6-6.9-21.8-46.2-41.8-25.3c-20,20.9,17.4,16.4-6.1,30.8
						c-23.5,14.4-29.1,25.4-29.1,25.4v7.3h113.1V137.8z"/>
				</g>
				<g>
					<path class="st18" d="M1165.1,171.8c0,0,0.2-19-10.9-40.3c-11.1-21.3,0.2-44.7,4.4-36.8c4.1,7.9,1.3,31.7,7.4,43.1
						c6.1,11.4,16.1,27.7,9.4,30.5C1168.6,171.1,1165.1,171.8,1165.1,171.8z"/>
				</g>
				<g>
					<path class="st19" d="M1129.1,82.3c0,0-23.8,14.3-17,29c6.9,14.7,0.3,20.3-8.2,26.5c-8.5,6.2-11.6,19.5-11.6,19.5
						s13.5-60.8,0-74.9H1129.1z"/>
				</g>
			</g>
			<g>
				<g>
					<rect x="1242.7" y="98.1" class="st9" width="104.8" height="104.8"/>
				</g>
				<g>
					<rect x="1246.9" y="102.3" class="st10" width="96.4" height="96.4"/>
				</g>
				<g>
					<rect x="1252" y="107.5" class="st20" width="86.1" height="86.1"/>
				</g>
				<g>
					<path class="st0" d="M1297.7,150.5c0,1.4-1.2,2.6-2.6,2.6c-1.4,0-2.6-1.2-2.6-2.6c0-1.4,1.2-2.6,2.6-2.6
						C1296.6,147.9,1297.7,149.1,1297.7,150.5z"/>
				</g>
				<g>
					<path class="st21" d="M1301.4,153.5c-5.1,0-9.2-4.1-9.2-9.2c0-5.1,4.1-9.2,9.2-9.2c5.1,0,9.2,4.1,9.2,9.2
						C1310.5,149.3,1306.4,153.5,1301.4,153.5z M1301.4,135.8c-4.7,0-8.5,3.8-8.5,8.5c0,4.7,3.8,8.5,8.5,8.5c4.7,0,8.5-3.8,8.5-8.5
						C1309.9,139.6,1306,135.8,1301.4,135.8z"/>
				</g>
				<g>
					<path class="st21" d="M1308.9,157.5c-9.9,0-18-8.1-18-18s8.1-18,18-18c9.9,0,18,8.1,18,18S1318.8,157.5,1308.9,157.5z
						 M1308.9,122.1c-9.6,0-17.4,7.8-17.4,17.4s7.8,17.4,17.4,17.4c9.6,0,17.4-7.8,17.4-17.4S1318.5,122.1,1308.9,122.1z"/>
				</g>
				<g>
					<path class="st21" d="M1310.9,193.6c0,0-24.6-3.2-36.2-43.1h-10.8c0,0-7.3-10.9-7.3-23.6h-4.6v66.7
						C1252,193.6,1312.4,193.6,1310.9,193.6z"/>
				</g>
				<g>
					<path class="st11" d="M1293.5,176.5c0,0,27.3,3.3,33.1-9.6l3,20.7C1329.6,187.6,1308.9,193.7,1293.5,176.5z"/>
				</g>
			</g>
			<g>
				<path class="st26" d="M828.8,356c0,0,0.5,3.5,0.5,4c0.1,0.5,5.3-0.3,5.3-0.3l0.4-4.1C835,355.5,829.4,355.5,828.8,356z"/>
				<path class="st27" d="M829.2,359.5c0,0-4.4,2.5-6,3.4c-1.6,0.9-6.5,1.4-6.3,2.3c0.2,0.9,1.6,3.1,8.2,3c6.6-0.1,9.8,0.4,10.5-0.7
					c0.7-1.1-1-8.3-1-8.3S833.1,360.3,829.2,359.5z"/>
				<path class="st26" d="M805.1,361.5l0.8,4.4c0,0,5.6-0.3,5.9-1.1c0.2-0.8-0.6-4.9-0.6-4.9L805.1,361.5z"/>
				<path class="st27" d="M811.7,364.5c0,0,1.8,6,0.5,8.2c-1.2,2.2-5.3,2.7-6.7,2.5c-1.5-0.1-5.5-1.5-9.2-1.3
					c-3.7,0.2-8.1-0.8-7-3.1c1.1-2.3,9.2-1.6,11.7-3.7c2.5-2.1,4.7-2.4,4.7-2.4S805.6,366.6,811.7,364.5z"/>
				<g>
					<polygon class="st28" points="791.3,250.5 782.3,237.3 790.1,233 797.8,246.5 					"/>
					<polygon class="st29" points="791.2,249.4 783.5,237.9 790.2,234.1 796.9,245.9 					"/>
					<path class="st30" d="M797.7,252.2c0,0-1.6-0.8-0.6-2.7c1-1.9,0.3-2.6,0.3-2.6l-7.3,4.4c0,0,2.3,3.4,3.1,3.8
						C794,255.3,798.3,253.5,797.7,252.2z"/>
					<path class="st30" d="M790,251.3c0,0-3.1-3.1-3.4-3.6c-0.3-0.4-1.5-2.3-2-3.4c-0.5-1.1,2.1-0.2,2.7,0.9
						c0.6,1.1,1.2,1.6,1.7,1.9c0.5,0.3,3.6,1.2,4.1,2.3C793.5,250.5,790,251.3,790,251.3z"/>
					<path class="st30" d="M795.8,243.1c0,0-0.4,1.1-0.8,0.5c-0.4-0.6-0.6-2.6,0.4-2.4C796.3,241.5,795.8,243.1,795.8,243.1z"/>
					<path class="st30" d="M794.6,241.1c0,0-0.3,1.4-0.8,0.8c-0.4-0.4-0.5-3,0.4-2.7C795.1,239.5,794.6,241.1,794.6,241.1z"/>
				</g>
				<path class="st30" d="M816.9,253.5c0,0-2.9-2.1-4.2-3.1c-1.3-1-4.6-2.8-4.9-3.1c-0.2-0.3-10.5-2.8-11-3.4
					c-0.5-0.7-1.5,1,1.1,2.1c2.6,1.1,6,3.2,6.1,4.2c0,1.1-3,0.8-3.4,1.6c-0.5,0.8,0,0.7,0.4,0.9c0.4,0.3,3.8-0.9,5.1-0.2
					c1.3,0.7,3.5,0.4,4.4,1c1,0.5,5.7,3.1,5.7,3.1L816.9,253.5z"/>
				<path class="st31" d="M810.8,254.8l-1.5-0.9c0,0,2.9-4.4,3.8-4.1c1,0.3,2.2,0.9,2.2,0.9L810.8,254.8z"/>
				<path class="st26" d="M810.3,255.5c0.2-0.1,4.6-5.8,4.6-5.8l6.8,2.2l-5.1,6.7L810.3,255.5z"/>
				<path class="st32" d="M848.5,298.6c0,0,0.7,11.1-4.8,13.1h-43c0,0,11.1,48,11.1,48.8l-7.2,2c0,0-19.6-41-20.5-43.3
					c-1.2-2.7-1.1-10,2.3-12.8c3.4-2.8,25-10.5,29.3-10.8C820,295.3,848.5,298.6,848.5,298.6z"/>
				<path class="st30" d="M840.1,238.1c0,0-0.2,2.9-0.2,6.5c-0.1,3.7-10,1.3-10,1.3s0.4-4-0.7-5.2
					C828,239.4,840.1,238.1,840.1,238.1z"/>
				<path class="st30" d="M825.5,223c-0.2,1.5-3.3,3.4-1.1,12.4c2.1,9,5.6,7.9,8.3,7.3c2.7-0.6,7.6-2.2,9.4-9.3
					c1.8-7.2-1.2-11.2-3.3-13.7C836.7,217.1,825.5,223,825.5,223z"/>
				<path class="st33" d="M853,249.9c0,0-3.5,18.4-2.2,24.2c-0.1,2.4-0.8,6.7-0.9,8.1c-0.3,3.7-0.8,15.9-0.8,15.9
					c-10.9,6.5-33.2-2-33.5-2.6c-0.7-1.3,5.4-10.5,5.4-13.1c0-2.6-3.4-12.9-3.4-12.9s-6,8.4-9.5,10.1c-3.5,1.7-15.2-22.3-15.2-22.3
					l6.4-4.7c0,0,7.9,11.3,8.2,11.7c0.3,0.4,8.1-8.3,9.1-10c1-1.7,13.1-8.4,13.1-8.4s9-1.4,10-1.3
					C840.8,244.8,852.2,249.5,853,249.9z"/>
				<path class="st34" d="M819,316.9c0,0,8,38.7,9.1,39c1.2,0.3,7.4-0.4,7.4-0.4s1.1-21.2,0.6-26c-0.4-4.8-0.5-13.9-0.5-13.9
					L819,316.9z"/>
				<path class="st31" d="M798.9,253l-1.1-1.6c0,0-5.6,3.1-5.4,3.9c0.2,0.7,1,1.7,1,1.7L798.9,253z"/>
				<path class="st35" d="M823.8,227.8c0,0-0.8-0.1-1.3-1.2c-0.5-1-1.9-8.7,7.9-9.1c7.3-0.3,8.1-0.6,10.8,2c3,2.9,2.2,13.8-1,18.5
					c0,0-5.9-1-8.3-5.4c-0.7-1.3,0.4-5.6-2.3-5c-2,0.4-1.9,5.5-1.9,5.5l-1.3,0.5C826.4,233.6,827.5,225.8,823.8,227.8z"/>
				<path class="st33" d="M853,249.9c0,0,8.7,7-2.9,25.4C844.9,283.6,853,249.9,853,249.9z"/>
				<path class="st31" d="M829.8,245.9v-1.1c0,0,8.1-2.4,10-1.3l0,1.1L829.8,245.9z"/>
				<path class="st33" d="M815.7,295.6c0,0,15.3,11.1,25.5,8.5c7.2-1.8,8-5.8,8-5.8L815.7,295.6z"/>
				<polygon class="st26" points="807.6,264.3 803.3,268.5 805.8,261.7 				"/>
			</g>
			<g>
				<linearGradient id="SVGID_7_" gradientUnits="userSpaceOnUse" x1="851.8961" y1="308.1192" x2="851.8961" y2="320.3858">
					<stop  offset="7.772020e-03" style="stop-color:#FFB94D"/>
					<stop  offset="1" style="stop-color:#B8A696"/>
				</linearGradient>
				<path class="st36" d="M938.1,320H765.7c-1.6,0-2.9-1.3-2.9-2.9v-2.8c0-1.6,1.3-2.9,2.9-2.9h172.3c1.6,0,2.9,1.3,2.9,2.9v2.8
					C941,318.7,939.7,320,938.1,320z"/>
				<linearGradient id="SVGID_8_" gradientUnits="userSpaceOnUse" x1="759.7036" y1="321.5271" x2="944.088" y2="321.5271">
					<stop  offset="0" style="stop-color:#5C5A56"/>
					<stop  offset="1" style="stop-color:#42413E"/>
				</linearGradient>
				<rect x="759.7" y="316.4" class="st37" width="184.4" height="10.2"/>
				<linearGradient id="SVGID_9_" gradientUnits="userSpaceOnUse" x1="764.7885" y1="309.547" x2="764.7885" y2="373.458">
					<stop  offset="0" style="stop-color:#5C5A56"/>
					<stop  offset="1" style="stop-color:#42413E"/>
				</linearGradient>
				<polygon class="st38" points="759.7,361.5 759.7,326.6 769.9,326.6 769.9,361.5 				"/>
				<linearGradient id="SVGID_10_" gradientUnits="userSpaceOnUse" x1="939.0031" y1="309.547" x2="939.0031" y2="373.458">
					<stop  offset="0" style="stop-color:#5C5A56"/>
					<stop  offset="1" style="stop-color:#42413E"/>
				</linearGradient>
				<polygon class="st39" points="933.9,361.5 933.9,326.6 944.1,326.6 944.1,361.5 				"/>
			</g>
			<g>
				<g>
					<g>
						<g>
							<path class="st40" d="M648.9,171.4c0,0,5.2,2.8,3.5,9.8c-1.6,7-2.3,7.9-0.9,10.7c1.3,2.8,2.5,14.6,1.1,16.8
								c-1.4,2.2-15.8-10.5-17.4-20.7c-1.6-10.2,2-14.5,3.3-16.1S644.3,168.8,648.9,171.4z"/>
						</g>
					</g>
				</g>
				<g>
					<path class="st41" d="M647.4,196c0,0-4,1.2-3.7,4.3c0.3,3.1,2.3,6.3,2.8,7.5c0.5,1.2,6.1,15.9,6,16.3c-0.1,0.5,0.6,5.3,0.9,11
						c0.3,6.5,0.3,9.7,0.3,9.7l4.4,0.1c0,0,0.9-16.9-0.2-21.1c-1.1-4.2-3.4-19.3-3.4-19.3S652.8,196.9,647.4,196z"/>
				</g>
				<path class="st33" d="M655.8,208l-8.2,3.5c0,0-7.6-18.8-1.2-16.7C652.6,196.9,655.5,200.8,655.8,208z"/>
				<path class="st42" d="M661.4,329.6c-1.7-1.2-5.4-8.3-5.4-8.3s-1.6-4.9-4.8-3.5c-1.9,0.8-2.1,3-1.8,4.6l0.7,8.2l0.6,0.1l0.1-5.6
					c0.8,1.7,1.2,4.9,2.3,6.2c1.2,1.5,6.8,1.3,7.9,1.4C662.1,332.7,663.6,331.2,661.4,329.6z"/>
				<path class="st42" d="M627.5,326.6c-1-1.8-1.1-9.8-1.1-9.8s0.7-5.1-2.7-5.2c-2.1-0.1-3.2,1.7-3.6,3.4l-3,7.6l0.5,0.3l2.6-5
					c0,1.8-1.1,5-0.7,6.5c0.4,1.8,5.5,4.2,6.5,4.8C626.8,329.7,628.8,329,627.5,326.6z"/>
				<g>
					<path class="st30" d="M641.3,253.5c0.2,1,1.3,5.1,2.5,9.7v0c1.1,4.2,2.4,8.8,3.1,11.7c0.3,1.1,0.5,2,0.6,2.5
						c0.7,3.5-0.5,8.8-1,13.2c-0.5,4.5,4.8,29.8,4.8,29.8c1.1,0.6,3.4-2.9,3.4-2.9c-0.8-1.6,0.7-29.9,1.2-31.6
						c0.5-1.7,1.1-6.6,0.7-8.5c-0.1-0.4-0.1-0.9-0.1-1.5c0.1-2.4,0.8-6.3,1.3-10.7c0.6-5.4-0.8-19.1-1.1-20.3c0-0.1-0.1-0.3-0.1-0.5
						c-0.5-1.9-2-7.4-2-7.4c-3.6-1.3-6.3-1.6-8.4-1.3c-2.7,0.4-4.3,2-5.2,4C639,244.7,641.1,252.3,641.3,253.5z"/>
				</g>
				<g>
					<path class="st30" d="M623.2,312.1l3.6,1.7c0.9-3,17.9-22.6,19.1-24.9c1.1-2.3,2.6-6.7,2.7-8.4c0-0.3,0.1-0.8,0.2-1.4
						c0.4-2.5,1.3-7.2,2.4-10.8c0.2-0.7,0.4-1.3,0.6-1.9c1-3.1,2.2-14,2.9-20.4c0.3-2.9,0.5-4.8,0.5-4.8s-0.1-0.1-0.2-0.2
						c-1.3-1.2-13.1-9.9-16.7-4.3c-1,1.5-1.7,3.6-2.2,5.4c-1.5,5.3-0.7,11.1,0.5,16.6c1.4,6.1,2.2,8.1,3.1,16.5
						c0.3,2.7-0.6,6.5-1.3,7.5c-2,2.9-4,5.2-8.5,15.6C628.3,301.6,623.2,312.1,623.2,312.1z"/>
				</g>
				<g>
					<path class="st33" d="M656.6,244.5c-3.4,0.5-25.7-4.1-25.8-5.1c-0.1-1,3-11.8,3.9-15c1-3.2,0-4-0.4-6.6c-0.2-1-0.9-2.9-1.6-5.1
						c-0.2-0.7-0.5-1.5-0.7-2.2c-0.9-2.7-1.3-5.5-1.5-7.1c-1.2-7.6,4.7-8.4,4.7-8.4c2.2-0.4,6-1.6,6-1.6l6,1.2c0,0,0.6,0.2,1.4,0.8
						c0,0,0,0,0,0c0.4,0.3,0.9,0.7,1.3,1.2c0.7,0.7,2,2.6,3.2,4.7c0.4,0.6,0.8,1.3,1.2,2c1.2,2.1,2.1,3.8,2,5.7
						c0,1.9-2.1,5.8-2.3,7.7c-0.2,1.9-1.2,8.5-1,10.2C653.2,228.9,656.6,244.5,656.6,244.5z"/>
				</g>
				<path class="st43" d="M632.8,257.8c3.1,9.6,4.9,12.3,2.9,16.6c0,0,0.8-1,6.4-0.1c1.5,0.3,3.2,0.5,4.9,0.8
					c3,0.4,7.4,1.1,10.7,1.3c0.1-2.4,0.5-11.9,0.5-16.2c0-6.5-1.1-13.9-1.4-15.1c0-0.1-0.1-0.3-0.1-0.5c-2.7-1.6-6.5-2.8-10.5-3.7
					c-1.7-0.4-3.5-0.7-5.1-1c-5.2-0.8-9.5-1.1-10-1.2C629.7,244.1,630.1,249.5,632.8,257.8z"/>
				<path class="st41" d="M647.1,194.8c0,0,3.7,6.4,2.3,6.9c-1.4,0.5-8.7-1.1-11.6-7.2C637.8,194.5,642.7,192.3,647.1,194.8z"/>
				<path class="st41" d="M646.5,197.7c0,0-3.3,1.4-6.3-3.2c0,0,0.8-5.3-0.9-8.3c-1.7-3,7.5,3.6,7.5,3.6s-0.1,0.6-0.3,1.6
					c-0.1,0.5-0.2,1-0.2,1.6c-0.1,0.5-0.1,1-0.1,1.5C646.1,195.7,646.2,196.9,646.5,197.7z"/>
				<g>
					<path class="st30" d="M654.6,317.6c0,0,4,8.8,4.8,10.1c0.7,1.2-1.6,1.1-3,0.5c-1.4-0.6-4.8-6.5-5.2-7.7c-0.4-1.1,0-2.7,0-2.7
						L654.6,317.6z"/>
				</g>
				<g>
					<path class="st30" d="M626.7,312.5c0,0-0.4,9.7-0.2,11.1c0.1,1.4-1.9,0.3-2.9-0.9c-1-1.2-1.4-8-1.2-9.2
						c0.2-1.2,1.2-2.4,1.2-2.4L626.7,312.5z"/>
				</g>
				<path class="st44" d="M638.3,204.9c-0.7,3.5-5.6,7.9-5.6,7.9c-0.2-0.7-0.5-1.5-0.7-2.2C635.4,208.4,638.3,204.9,638.3,204.9z"/>
				
					<rect x="633.5" y="234.1" transform="matrix(0.992 -0.126 0.126 0.992 -25.4105 83.4268)" class="st45" width="26.5" height="17"/>
				<g>
					<path class="st41" d="M634.2,196.2c0,0,4.1,0.5,4.4,3.6c0.3,3.1-1.2,6.6-1.5,7.9c-0.3,1.3-1.7,14.3-1.6,14.7
						c0.2,0.4,2.2,9.3,2.8,13.6c0.6,4.4,2.9,10.4,2.9,10.4l-3.3,0.9c0,0-8.7-18.9-8.2-23.2c0.4-4.4-1.1-18.3-1.1-18.3
						S627.2,197.3,634.2,196.2z"/>
				</g>
				<g>
					<g>
						<g>
							<g>
								<g>
									<path class="st41" d="M639,253.7c0,0-0.4-0.4-0.5-0.7c0,0-0.1-0.5-0.2-0.9c0-0.1-0.1-0.2-0.1-0.3c-0.1-0.3-0.5-0.8-0.6-1.4
										c-0.1-0.7,0.1-3.7,0.1-3.7l1.7-0.3l1.5-0.5c0,0,2.8,3.2,3,3.8c0,0.1,0,0.1,0,0.2c0.1,0.5,0,1,0,1.3c0,0.1,0,1.2-0.2,1.4
										c-0.3,0.3-0.7,0.3-1,0.3c0,0-0.7,0.5-1.3,0.5c0,0-0.6,0.5-1.3,0.3C640,253.5,639.4,253.9,639,253.7z"/>
								</g>
							</g>
						</g>
					</g>
				</g>
				<path class="st33" d="M628,209.5l8.7,2c0,0,6.9-13.4,0.7-15.8C630.8,193.1,626.4,202.2,628,209.5z"/>
				<g>
					<g>
						<g>
							<g>
								<g>
									<path class="st41" d="M658.2,251.8c0,0,0.3-0.5,0.4-0.8c0,0,0-0.5,0.1-0.9c0-0.1,0-0.2,0.1-0.3c0.1-0.3,0.3-0.8,0.3-1.5
										c0-0.7-0.7-3.7-0.7-3.7l-1.7-0.1l-1.6-0.3c0,0-2.2,3.6-2.3,4.2c0,0.1,0,0.1,0,0.2c0,0.6,0.2,1,0.2,1.3
										c0,0.1,0.2,1.2,0.5,1.3c0.4,0.2,0.7,0.2,1,0.1c0,0,0.8,0.4,1.3,0.3c0,0,0.7,0.4,1.4,0C657.1,251.8,657.9,252.1,658.2,251.8
										z"/>
								</g>
							</g>
						</g>
					</g>
				</g>
				<path class="st41" d="M655,244.4c0,0,0.3-6-0.8-10.6c-1.1-4.5,4.3-1.4,4.3-1.4l-0.2,12.8L655,244.4z"/>
				<g>
					<g>
						<g>
							<path class="st30" d="M648.1,172.1c0,0,7.6,2.8,2.8,15.8c-4.8,13-14.6-2.2-13.1-10.2C639.2,169.7,648.1,172.1,648.1,172.1z"
								/>
						</g>
					</g>
				</g>
				<g>
					<g>
						<g>
							<path class="st40" d="M652,180.1c0,0-4,3.6-10.4,3.7c0,0-1.5,3.6-1.7,4.8c0,0-6.3-10.9,0.9-16.3
								C648.1,166.7,654.7,177.8,652,180.1z"/>
						</g>
					</g>
				</g>
				<g>
					<g>
						<g>
							<path class="st30" d="M642.5,184.6c0-1-0.5-3.2-2-2.6c-1.5,0.5-0.2,5.1,0.8,4.9C641.3,186.8,642.5,186.8,642.5,184.6z"/>
						</g>
					</g>
				</g>
				<path class="st46" d="M646.2,194.3c-3.6-1-4.9-4.4-5-4.5c2.9,3.7,5.1,3.2,5.1,3.2C646.2,193.5,646.2,193.8,646.2,194.3z"/>
			</g>
			<g>
				<g>
					<path class="st41" d="M1139.2,231.1c0,0-1.8,0.7-3.2,0.8c-1.4,0.1-3.4,1.6-3.9,2.2c-0.5,0.6-4.7,5.2-4.8,5.7
						c-0.1,0.6,1.1,0.4,1.5-0.1s4.1-4.1,4.1-4.1s-4.1,4.6-4.1,5.1c0,0.5,0.6,1,1.4,0.5c0,0,0.6,1.2,1.7,0.2l2.1-2.1
						c0,0-0.9,1.3,0.3,0.9c0.6-0.2,2.8-2.9,3.3-3.3c0.6-0.4,2.9-3.9,2.9-3.9L1139.2,231.1z"/>
				</g>
				<g>
					<path class="st47" d="M1153.8,319.9c0,0-1.6,3.1-2.5,3.8c-0.9,0.6-6.3,5.8-7.4,6.3c-1.1,0.5-4.6,1.1-4.6,2.8
						c0,1.7,9.1,1.1,10.8,0.5s4.7-4.6,5.9-4.6c1.2,0,0.8,4.9,0.8,4.9h1.3c0,0,1.6-5.1,1.6-6.9c0-1.8-1-6.7-1-6.7H1153.8z"/>
				</g>
				<g>
					<path class="st47" d="M1175.8,318c0,0-0.7,3.1-1.8,4.2c-1.1,1.1-5.4,5.7-6.5,6.2c-1.1,0.5-3.1,0.8-3.8,1.6s-0.3,3.1,3.8,2.9
						c4-0.2,5.4-0.2,6.3-1c1-0.8,4.1-3.6,5-3.7v4.5h1.1c0,0,2-5.9,1.3-8.3c-0.7-2.5-0.7-5.8-0.7-5.8L1175.8,318z"/>
				</g>
				<g>
					<path class="st41" d="M1174.2,185.1c0,0,1.8,4.7,0.4,8.4c0,0,6.8-0.4,7-1.2c0.3-0.8-0.3-7.9,0.7-10
						C1183.2,180.3,1174.2,185.1,1174.2,185.1z"/>
				</g>
				<g>
					<g>
						<g>
							<g>
								<path class="st41" d="M1186.5,248.8c0,0-0.4,1-0.3,1.8c0,0.6-0.3,1.6-0.4,2.1c-0.1,0.5-0.4,2.9-0.4,3.5
									c0,0.2,0.8,1.6,0.8,2.1c0,0.5-0.1,1.5,0.3,1.5c0.4,0,0.8-0.9,0.8-0.9s0,0.4,0.4,0.5c0.7,0.2,1.1-0.2,1.1-0.2
									s0.3,0.4,0.7,0.4c0.7,0,1-0.4,1-0.4s0.4,0.2,0.8,0.1c0.6-0.1,0.8-0.7,0.8-0.7s0.8,0,1-0.4c0.2-0.4,0.1-0.8,0.1-1.2
									c0-0.4-0.6-3.4-2-5.4c-1.4-2-0.7-4.5-0.7-4.5L1186.5,248.8z"/>
							</g>
						</g>
					</g>
				</g>
				<g>
					<g>
						<g>
							<path class="st48" d="M1187.1,258.6c0,0-0.5-2.7,0.1-3.5c0.6-0.7,0.9,0.2,0.9,0.2s-0.3-1,0.5-1.3c0.8-0.3,1,0.9,1,0.9
								s0-0.8,0.8-0.8c0.8,0,0.8,1,0.8,1s0.6-1.1,1.3-0.3c1.1,1.4,0.6,3.3,0.6,3.3s-0.2,0.5-1,0.4c0,0-0.3,1.2-1.6,0.7
								c0,0-1.1,0.9-1.7-0.1C1188.8,259.2,1187.6,260.1,1187.1,258.6z"/>
						</g>
					</g>
				</g>
				<g>
					<path class="st49" d="M1173.6,191.9c0,0-4,1.4-5.8,1.8c-1.8,0.4-5.6,2.1-5.3,8.7c0.3,6.6,1.4,12.2,1.8,15.1
						c0.4,2.8,0.2,10-0.5,13.5c0,0,9.6,2.4,20.8,0c0,0-2-5.9-1.9-7.5c0.1-1.5,6.7-14.2,7-16.2c0.3-2,1.6-10.8-1.4-12.8
						c-3-1.9-5.5-1.7-6.8-2.6C1180.3,191.1,1175.4,191.3,1173.6,191.9z"/>
				</g>
				<g>
					<path class="st49" d="M1168.4,193.6c0,0-4.4-0.1-7.5,6.8c-3.1,6.9-3.9,11-4.6,11.9c-0.7,1-3.2,4.8-5.7,6.6
						c-2.5,1.8-12.7,12.2-12.7,12.2l2.8,3.6c0,0,14.8-10.4,16.3-12.2c1.5-1.8,10.9-15.4,11.4-17.4
						C1169,203,1173.3,195.7,1168.4,193.6z"/>
				</g>
				<g>
					<path class="st49" d="M1194.9,227.9c0,2.8-2.8,21.6-2.8,21.6l-5.4,0.2c0,0,1.7-18.7,2.4-23c0.2-1.3,0-3.2-0.3-5.4v0
						c-0.2-1.4-0.5-2.8-0.7-4.2c-0.7-3.8-1.6-7.1-1.6-7.1s-4.9-16.1,2.6-14.9c0,0,2.6,3.1,3.4,7.9c0.8,4.8,1.7,12.1,1.5,14.9
						C1193.8,220.8,1194.9,225.9,1194.9,227.9z"/>
				</g>
				<g>
					<path class="st50" d="M1163.8,230.9c0,0-1.7,4.1-1.9,5.2c-0.2,1-5.6,14.6-6,18.6c-0.4,4-1.5,14.8-1.9,16.3
						c-0.4,1.5,0.9,8.4,1.1,9.9c0.2,1.5,0.1,26.6-1.7,39c0,0,4.3,1.8,7.6,0c0,0,5.4-19.4,5.1-30.5c-0.3-11.2-1.7-15.9,0-20.4
						c1.7-4.5,11.9-18,12.9-19.5c1-1.4,7.4-9.4,1.4-17.9C1174.3,223,1163.8,230.9,1163.8,230.9z"/>
				</g>
				<g>
					<path class="st50" d="M1184.8,267.6c-0.5,3.6,0,8.3,1.2,21.4c1.1,13.1-2,29-2,29c-3.9,1.3-8.4,0-8.4,0c0.1-0.9,0-32,0-34.7
						c0-2.8-0.8-5.9-1-9.1c-0.1-2.2-1.1-6.2-2.3-10.2c-0.3-1.2-0.7-2.4-1-3.6c0,0,0,0,0,0c-0.2-0.7-0.4-1.3-0.6-2
						c-1.6-5.5-3.7-26.9-3.7-26.9s11.9-9.6,17.7-0.6c5.8,9,2.8,15.6,2.6,16.7C1187.1,248.7,1185.3,264,1184.8,267.6z"/>
				</g>
				<g>
					<path class="st49" d="M1162.9,214.2c0,0,0.8,16.1-3,25.4c0,0,12.7,4.2,29,0c0,0-3.5-11.6-3.2-13.3c0.3-1.8,6.4-22.1,4.5-26.9
						C1188.3,194.5,1164.8,199,1162.9,214.2z"/>
				</g>
				<g>
					<path class="st41" d="M1178,166.4c-2.9-0.3-10.2,0.3-9.7,11.4c0.6,11.1,4.6,10.4,8.7,9.3c4-1.2,8.9-9.8,8.9-12.1
						C1185.9,172.7,1186.2,167.4,1178,166.4z"/>
				</g>
				<g>
					<path class="st51" d="M1168.7,172.7c0,0,3.2,4.1,6.4,5.1c0,0,2.5,4.4,6.8,5.6c0,0,9.3-8.9,1.5-15.5
						C1175.7,161.2,1168.7,169.3,1168.7,172.7z"/>
				</g>
				<g>
					<path class="st41" d="M1174.6,176.3c0.1-0.6,1.5-1.8,2.5-0.5c1,1.4-0.9,4.6-1.6,4.6C1174.8,180.4,1174.2,178.6,1174.6,176.3z"
						/>
				</g>
				<g>
					<path class="st51" d="M1184.8,169.9c0.2-0.4,7.2-3.5,8.7,3.1c1.5,6.6-5.7,14.3-6.9,17.6c-1.2,3.3,0,11.1,0,11.1s-3.7-4-5-8.2
						C1180.2,189,1179.7,177.6,1184.8,169.9z"/>
				</g>
				<g>
					<path class="st47" d="M1179.9,248.3c-0.1,0.2-6,13.4-7.5,15.6c-0.3-1.2-0.7-2.4-1-3.6c0,0,0,0,0,0S1179.7,248.6,1179.9,248.3z"
						/>
				</g>
				<g>
					<path class="st52" d="M1189.9,207.9c0,0-0.2,8.4-1.2,13.4c-0.2-1.4-0.5-2.8-0.7-4.2C1188,217,1189.7,209.2,1189.9,207.9z"/>
				</g>
			</g>
			<g>
				<g>
					<path class="st53" d="M1142.3,321.2c0,0,0.5,3.4,0.5,3.9c0.1,0.5,5.4-0.3,5.4-0.3l0.4-4.1
						C1148.7,320.8,1142.9,320.8,1142.3,321.2z"/>
				</g>
				<g>
					<path class="st54" d="M1142.8,324.7c0,0-1.7,2.1-3.3,2.9c-1.6,0.9-4.2,1.2-5.2,2.2c-0.7,0.7-2.5,3.5,4.3,3.5
						c6.8-0.1,10.1,0.4,10.8-0.7c0.7-1.1-1.1-8.1-1.1-8.1S1146.6,325.1,1142.8,324.7z"/>
				</g>
				<g>
					<path class="st53" d="M1104,321.2c0,0,0.5,3.4,0.5,3.9c0.1,0.5,5.4-0.3,5.4-0.3l0.4-4.1C1110.4,320.8,1104.7,320.8,1104,321.2z
						"/>
				</g>
				<g>
					<path class="st54" d="M1104.5,324.7c0,0-1.7,2.1-3.3,2.9c-1.6,0.9-7.7,1.6-8.6,2.6c-0.7,0.7-1.9,3.4,7.7,3.1
						c6.8-0.2,10.1,0.4,10.8-0.7c0.7-1.1-1.1-8.1-1.1-8.1S1108.5,325.1,1104.5,324.7z"/>
				</g>
				<g>
					<path class="st55" d="M1140.4,233.4c0,0,2.8,8.4,2.5,15.7c-0.4,7.3,1.5,15.2,2.2,22.8c0.8,8.5,4.3,28.5,4.4,33.1
						c0.1,4.5-0.5,19-0.5,19l-6.9,0.2c0,0-5.8-35.1-7.3-38.7c-1.5-3.6-8.9-29.1-9.2-32C1125.3,250.7,1140.4,233.4,1140.4,233.4z"/>
				</g>
				<g>
					<path class="st54" d="M1111.4,234.9c0,0-3.8,19.9-4.3,24.4c-0.5,4.5-0.8,21.6-1.1,24.3c-0.2,2.8-1.7,36.4-3,40.6h8.8
						c0,0,6.8-24.5,6.8-36c0-11.6,5.2-25.2,8.6-32.8c3.4-7.6,11.1-7.8,13.2-22C1140.4,233.4,1114.2,230.4,1111.4,234.9z"/>
				</g>
				<g>
					<path class="st41" d="M1129.3,166.7c0,0-6.9-2.6-10.1,2.7c-3.2,5.3-2.9,15.9,0.6,17.2c3.5,1.3,8.8,0.6,10.5-2.7
						c1.8-3.3,3.4-8.1,3.3-11.3C1133.6,169.4,1131.1,167.6,1129.3,166.7z"/>
				</g>
				<g>
					<path class="st41" d="M1120.9,186.2c0,0,0.3,1.8-0.2,2.7c-0.5,0.9,8.7,0.9,8.7,0.9s0.7-4.9,2.2-9
						C1133.1,176.8,1120.9,186.2,1120.9,186.2z"/>
				</g>
				<g>
					<path class="st51" d="M1131.7,180.9c0,0-0.6,1-3.2,0.6c-2.6-0.4-5.7-3.9-6.8-4.2c-1.1-0.4-1.1-1-1.1-1l-0.7,1l-1.1,0.1
						c0,0,1-3.1-0.5-4.3c-1.6-1.3,1.6-10,9.9-7.1c0,0,6.4,1.8,6.1,5.4C1134,174.9,1133.1,179.1,1131.7,180.9z"/>
				</g>
				<g>
					<path class="st56" d="M1120.2,188.8c0,0,0-1.7,0.8-1.9c0.8-0.2,8.6-0.9,9.5-0.5v2C1130.5,188.4,1128.7,189.5,1120.2,188.8z"/>
				</g>
				<g>
					<path class="st41" d="M1120.7,174.9c0.1-0.6,1.7-2.3,2.3-0.5c0.6,1.9-0.9,4.4-1.7,4.2C1120.4,178.4,1120.3,176.5,1120.7,174.9z
						"/>
				</g>
				<g>
					<path class="st57" d="M1120.2,188.8c0,0-4.3,1.5-9.2,3.6c0,0-5.7,2.1-6.3,8.4c-0.3,3.3-3.9,21-4.5,22.5
						c-0.7,1.5-8.5,25.6-8.8,26.1c-0.3,0.5,6.4,3.3,6.9,3.1c0.4-0.2,7.6-21.9,8.3-23.6c0,0,4.1-13,4.2-15c0,0,0.1,5.5,0.3,7.1
						c0.2,1.6-3.7,31.7-3.6,32.5c0.1,0.8,17.7,1.9,24.8,1.1c7-0.8,12.7-2.4,12.7-2.4s-5.5-23.8-5.4-26.4c0.4-5.7,2.3-16.6,2.3-16.6
						l5.7,10.8l-7.4,18.9l1.7,5.8c0,0,13.7-20.6,14.1-22.5c0.4-1.9-0.7-4.3-1.4-5.8c-0.7-1.6-5.5-13.4-6.6-15
						c-1.1-1.7-3-8.3-7.5-10.2c-3.8-1.6-10.1-2.8-10.1-2.8L1120.2,188.8z"/>
				</g>
				<g>
					
						<rect x="1081" y="233.4" transform="matrix(0.9687 0.2484 -0.2484 0.9687 95.2619 -264.9571)" class="st58" width="33.2" height="23.2"/>
				</g>
				<g>
					<path class="st59" d="M1088.5,254.4c0,0-0.9,1.5-1.3,1.9c-0.3,0.4,0.8,0.7,1.3,0.3C1089.1,256.1,1088.5,254.4,1088.5,254.4z"/>
				</g>
				<g>
					<path class="st60" d="M1095.2,259.5c0,0,0.5-0.6,0.7-0.9c0,0,0.2-0.7,0.3-1.2c0-0.1,0.1-0.3,0.1-0.4c0.2-0.3,0.6-1,0.7-2
						c0.1-0.9,0.5-5,0.5-5l-2.5-0.6l-2-0.4c0,0-4.3,4.3-4.6,5.2c0,0.1,0,0.2-0.1,0.2c-0.1,0.7,0.1,1.3,0.1,1.7c0,0.1,0,1.6,0.3,1.8
						c0.5,0.4,0.9,0.4,1.3,0.3c0,0,0.9,0.7,1.7,0.6c0,0,0.8,0.7,1.8,0.3C1093.8,259.2,1094.7,259.8,1095.2,259.5z"/>
				</g>
				<g>
					<path class="st57" d="M1105,233.4c0,0-5.7,17.3-6.8,19.1c0,0-4.2-0.9-6.9-3.1l6.3-18.7L1105,233.4z"/>
				</g>
			</g>
			<g>
				<g>
					<g>
						<path class="st61" d="M1037.3,236.1c0,0-0.3-1.3-0.5-1.5c-0.2-0.2-0.4-1.5-0.7-1.8c-0.8-0.9-1.3-0.7-1.5-0.8
							c-0.2-0.1,0.2,0.7,0.3,1.2c0.1,0.5,0.2,1.2,0.4,1.2C1035.6,234.4,1036.8,236.5,1037.3,236.1z"/>
					</g>
					<g>
						<path class="st42" d="M1015.3,321.7c0,0-0.9,2.4-2.2,3c-1.3,0.6-4.1,3.2-5.2,3.4c-1.1,0.2-3.9,0.4-4,1.9
							c-0.2,1.4,0.1,2.8,5.7,2c5.5-0.8,10.7-3.3,10.7-3.3s1.1-5.6-0.7-8.4C1017.8,317.5,1015.3,321.7,1015.3,321.7z"/>
					</g>
					<g>
						<path class="st42" d="M1022.5,320.2c0,0-1.4,2.4-2.3,2.9c-0.9,0.5-3.2,3.8-4.9,4.5c-1.7,0.7-5.8,2.1-5.4,3.8
							c0.5,1.7,7.8,2.5,11.7-0.6c3.9-3.2,4.9-3.3,5-4.5c0.1-1.2-0.5-6.3-0.3-6.8C1026.6,319,1022.5,320.2,1022.5,320.2z"/>
					</g>
					<g>
						<path class="st61" d="M1005.4,263.4c0,0-9,11.7-8,16.5c1,4.9,3.5,7.8,3.9,9c0.4,1.2,13.6,30,13.8,32.3c0.2,2.3,4.4,0.1,4.4-1
							c0-1.1-3.4-14.8-3.2-18.8c0.3-3.9-5.6-12.6-5.6-14.5c0-1.9-1.8-6,2.4-11c4.2-5,8.1-11.1,8.1-11.1s2.9,11.3,2.8,12.5
							s-0.9,5.3-0.6,8.1c0.3,2.7-0.4,33-1,34.7c0,0,2.1,1.2,3.6-0.3c1.5-1.5,5.7-19.1,6.9-22.4c1.2-3.3-0.2-11.1,0-13.3
							c0.2-2.2,4.7-16.7,4.7-18.8C1037.7,263.4,1031.3,256.9,1005.4,263.4z"/>
					</g>
					<g>
						<path class="st62" d="M1039.1,252c0,0.2,0,0.5,0,0.7c0,1,0,1.9-0.1,2.9c0,0.7-0.1,1.4-0.1,2.1c-0.1,1.1-0.2,2.2-0.3,3.4
							c-0.1,0.5-0.1,1.1-0.2,1.6c-0.2,1.2-0.3,2.5-0.5,3.7c-0.1,0.5-0.1,1-0.2,1.4c-0.2,1.2-0.4,2.4-0.5,3.6
							c-0.1,0.6-0.2,1.3-0.3,1.9c0,0,0,0,0,0c-0.1,0.8-0.4,1.3-0.8,1.7c-0.5,0.4-1.2,0.7-2.1,1c-0.2,0.1-0.3,0.1-0.5,0.2
							c-0.9,0.4-1.7,0.7-2.6,1c-1,0.4-1.9,0.7-2.9,1c0,0,0,0,0,0c-0.2,0.1-0.4,0.1-0.6,0.2c-0.4,0.1-0.8,0.2-1.2,0.4
							c-2.4,0.7-4.8,1.2-7.2,1.7c-1.2,0.2-2.3,0.4-3.5,0.6c-0.7,0.1-1.5,0.2-2.2,0.3c-1,0.1-2,0.2-3,0.3h0c-0.3,0-0.5,0.1-0.8,0.1
							c-2.1,0.2-4.1,0.3-6.2,0.4c-1.2,0-2.4,0.1-3.7,0.1c-1.6,0-3.3,0-4.9-0.1c0.1-0.2,0.1-0.4,0.2-0.7c0.4-1.1,0.9-2.2,1.4-3.3
							c0.3-0.6,0.6-1.1,0.9-1.7v0c0.3-0.6,0.6-1.2,1-1.8c0,0,0,0,0,0c0.2-0.4,0.4-0.7,0.5-1.1c0.8-1.6,1.5-3.1,2.3-4.7
							c0.5-1.1,1.1-2.2,1.6-3.3c0.7-1.4,1.3-2.7,2-4.1c0.2-0.4,0.4-0.8,0.6-1.1v0c0.5-1,1-2,1.5-3c0.3-0.5,0.5-1,0.8-1.6v0
							c0.4-0.8,0.7-1.5,1.1-2.3c0.9-1.8,1.8-3.7,2.7-5.5c0.1-0.1,0.1-0.2,0.2-0.4c0.5-1,1-2.1,1.5-3c0.3-0.6,0.6-1.1,1-1.6
							c0.4-0.5,0.8-0.9,1.3-1.3c0.6-0.5,1.2-0.9,1.9-1.4h0c0.6-0.4,1.2-0.9,1.8-1.3c0.8-0.5,1.6-1.1,2.5-1.6
							c0.9-0.6,1.9-1.1,2.8-1.5c0.3-0.2,0.7-0.3,1-0.5c0.4-0.2,0.9-0.4,1.4-0.6c0.8-0.3,1.7-0.6,2.6-0.8h0c1.2-0.3,2.3-0.3,3.4-0.1
							h0c0.5,0.1,0.9,0.2,1.3,0.5c0,0,0,0,0,0c0.5,0.3,1,0.7,1.5,1.2c0.3,0.3,0.5,0.6,0.7,1c0,0,0,0,0,0c0.1,0.2,0.2,0.4,0.3,0.7
							c0.5,1,0.8,2.1,1.1,3c0.2,0.5,0.3,1,0.4,1.5c0.3,1.2,0.6,2.4,0.7,3.6c0.1,0.6,0.2,1.2,0.2,1.9c0.1,1,0.2,2,0.2,3
							C1039.1,250.9,1039.1,251.4,1039.1,252z"/>
					</g>
					<g>
						<path class="st61" d="M1005.3,216c0,0-2,4.8-2.6,4.4c-0.6-0.4-3.8-4.4-6.3-6.2c-2.5-1.8-6.6-6.8-6.6-6.8s-4,2.5-3.8,2.9
							c0.2,0.5,15.6,20.2,16.8,20.1c3.5-0.1,8.2-10.4,8.2-10.4S1010.1,216.9,1005.3,216z"/>
					</g>
					<g>
						<path class="st63" d="M1022.1,171.7c0,0-2.7,1-3.7,5.3c-1,4.3,1.2,12.2,0.4,15.4c-0.8,3.1-5.3,7.6-5.7,9.4
							c-0.3,1.7,13.2-4.3,13.2-4.3S1036.7,174.3,1022.1,171.7z"/>
					</g>
					<g>
						<path class="st61" d="M983.6,202.3c0,0-1.1-2.4-1.5-2.9c-0.4-0.5,0.7-1.8,1.5-0.4c0.8,1.4,1.3,2.3,1.3,2.3L983.6,202.3z"/>
					</g>
					<g>
						<path class="st64" d="M984.7,204.5l-3.8-10.3c-0.3-0.7,0.1-1.4,0.8-1.6l5-1.2c0.6-0.2,1.3,0.2,1.5,0.8l3,10.6
							c0.2,0.7-0.2,1.4-0.9,1.5l-4.2,0.9C985.5,205.4,984.9,205.1,984.7,204.5z"/>
					</g>
					<g>
						<path class="st61" d="M983.3,203.9c0,0-0.5-0.9,1-2.5c1.9-2.1,4.5-4.5,5.2-4.5c0.9,0.1,0.8,0.9-0.5,2
							c-1.3,1.1-1.7,1.5-1.7,1.5s2.8-1.5,3.6-1.4c0.8,0.1,1.2,0.9,0.7,1.2c-0.4,0.3-1.5,0.9-1.5,0.9s1.3-0.5,1.6,0
							c0.2,0.3,0.5,0.8-0.6,1.5c0,0,1.2,0.5,0.2,1.6c-1,1.1-1.1,1.7-0.8,3c0.2,1.3-0.5,3.4-0.5,3.4l-4.1-0.8c0,0-0.6-2.8-1.1-3.6
							C984.1,205.4,983.3,203.9,983.3,203.9z"/>
					</g>
					<g>
						<path class="st62" d="M1047.3,212.3l-2.5,2.2l-2.5,2.3l-2,1.8l-1.3-1.6l-0.2-0.2c0,0-0.5,1.1-1.3,2.6
							c-0.3,0.5-0.5,1.2-0.8,1.8c0,0,0,0,0,0c-0.3,0.6-0.5,1.1-0.8,1.7c-1.1,2.5-2.1,5.1-2,6.2c0,0.1,0,0.2,0,0.3
							c0.1,0.4,0.3,1,0.5,1.7v0c0.1,0.2,0.1,0.5,0.2,0.7c0.1,0.3,0.2,0.5,0.2,0.8c0,0,0,0,0,0c0,0.1,0.1,0.2,0.1,0.3c0,0,0,0,0,0
							c0,0,0,0,0,0c0.1,0.4,0.2,0.8,0.4,1.2c0.3,1,0.6,1.9,0.7,2.3c0,0,0,0,0,0c0,0.1,0.1,0.2,0.1,0.2c-1.8,0.9-4.3,1.8-7,2.5
							c-0.9,0.3-1.7,0.5-2.6,0.8c-0.8,0.2-1.6,0.4-2.4,0.6c-1.3,0.3-2.5,0.6-3.7,0.9c-0.8,0.2-1.6,0.4-2.3,0.5c0,0,0,0,0,0
							c-1.1,0.2-2,0.4-2.8,0.6c-1,0.2-1.5,0.3-1.5,0.3s0.9-5.5,1.3-9.4c0-0.4,0.1-0.8,0.1-1.2c0.1-1.2,0.2-2.1,0.1-2.3
							c-0.3-1.1-0.8-6.9-1.3-7.4c-0.2-0.2-0.5-0.7-0.9-1.3c-0.6-1-1.4-2.3-1.4-2.3l-0.8,1.2l-1-0.8l-1.7-1.3l-2.9-2.2l-0.7-0.5
							c0,0,0.3-0.7,0.8-1.7c0.4-0.9,1-2.1,1.7-3.3c0.9-1.7,1.9-3.6,2.9-5.2c0.7-1.1,1.3-2,1.9-2.7c0.1-0.2,0.3-0.3,0.4-0.4
							c2.8-2.7,10.9-5.5,10.9-5.5s0.9,0,2.2,0c1.1,0,2.4,0.1,3.8,0.1c2,0.1,4.1,0.3,5.7,0.5c2.1,0.3,4.6,3.1,6.8,5.9
							c0.8,1.1,1.5,2.1,2.2,3.1c1.2,1.8,2,3.2,2,3.2L1047.3,212.3z"/>
					</g>
					<g class="st8">
						<g>
							<path class="st0" d="M1041.2,209.9c0,1,0.8,1.9,1.9,1.9c1,0,1.9-0.8,1.9-1.9c0-1-0.8-1.9-1.9-1.9
								C1042,208,1041.2,208.8,1041.2,209.9z"/>
							<path class="st0" d="M1036,207.3c0,1,0.8,1.9,1.9,1.9c1,0,1.9-0.8,1.9-1.9c0-1-0.8-1.9-1.9-1.9
								C1036.8,205.4,1036,206.2,1036,207.3z"/>
							<path class="st0" d="M1036,202.1c0,1,0.8,1.9,1.9,1.9c1,0,1.9-0.8,1.9-1.9c0-1-0.8-1.9-1.9-1.9
								C1036.8,200.2,1036,201,1036,202.1z"/>
						</g>
						<g>
							<path class="st0" d="M1039.3,216.5c-0.1,0.2-0.2,0.4-0.3,0.6l-0.2-0.2c0,0-0.5,1.1-1.3,2.6c-0.9-0.1-1.6-0.9-1.6-1.9
								c0-1,0.8-1.9,1.9-1.9C1038.4,215.8,1039,216,1039.3,216.5z"/>
							<path class="st0" d="M1036,212.5c0,1,0.8,1.9,1.9,1.9c1,0,1.9-0.8,1.9-1.9c0-1-0.8-1.9-1.9-1.9
								C1036.8,210.6,1036,211.4,1036,212.5z"/>
							<path class="st0" d="M1041.2,209.9c0,1,0.8,1.9,1.9,1.9c1,0,1.9-0.8,1.9-1.9c0-1-0.8-1.9-1.9-1.9
								C1042,208,1041.2,208.8,1041.2,209.9z"/>
							<path class="st0" d="M1044,206.5c-0.3,0.2-0.6,0.3-1,0.3c-1,0-1.9-0.8-1.9-1.9c0-0.6,0.3-1.1,0.7-1.5
								C1042.6,204.5,1043.4,205.6,1044,206.5z"/>
						</g>
						<g>
							<path class="st0" d="M1036.7,221.3c-0.3,0.6-0.5,1.1-0.8,1.7c0-0.1,0-0.1,0-0.2C1036,222.2,1036.3,221.7,1036.7,221.3z"/>
						</g>
						<g>
							<path class="st0" d="M1037.5,240.3c-0.9-0.2-1.5-0.9-1.5-1.9c0-0.4,0.2-0.9,0.4-1.2C1036.8,238.3,1037.2,239.4,1037.5,240.3z
								"/>
						</g>
						<g>
							<path class="st0" d="M1039.1,250.3c-0.3,0.3-0.8,0.4-1.2,0.4c-1,0-1.9-0.8-1.9-1.9c0-1,0.8-1.9,1.9-1.9c0.4,0,0.7,0.1,1,0.3
								C1039,248.3,1039,249.3,1039.1,250.3z"/>
							<path class="st0" d="M1038.6,245.4c-0.2,0.1-0.5,0.2-0.8,0.2c-1,0-1.9-0.8-1.9-1.9c0-1,0.8-1.9,1.9-1.9c0,0,0,0,0,0
								C1038.2,243,1038.4,244.2,1038.6,245.4z"/>
						</g>
						<g>
							<path class="st0" d="M1038.9,257.7c-0.1,1.1-0.2,2.2-0.3,3.4c-0.2,0.1-0.4,0.1-0.7,0.1c-1,0-1.9-0.8-1.9-1.9
								c0-1,0.8-1.9,1.9-1.9C1038.2,257.4,1038.6,257.5,1038.9,257.7z"/>
							<path class="st0" d="M1039.1,252.7c0,1,0,1.9-0.1,2.9c-0.3,0.3-0.7,0.4-1.2,0.4c-1,0-1.9-0.8-1.9-1.9c0-1,0.8-1.9,1.9-1.9
								C1038.3,252.2,1038.8,252.4,1039.1,252.7z"/>
						</g>
						<g>
							<path class="st0" d="M1037.6,267.8c-0.2,1.2-0.4,2.4-0.5,3.6c-0.7-0.3-1.1-1-1.1-1.7C1036,268.7,1036.7,268,1037.6,267.8z"/>
							<path class="st0" d="M1038.3,262.7c-0.2,1.2-0.3,2.5-0.5,3.7c-1,0-1.8-0.9-1.8-1.9c0-1,0.8-1.9,1.9-1.9
								C1038,262.6,1038.2,262.6,1038.3,262.7z"/>
						</g>
						<g>
							<path class="st0" d="M1036.8,273.3c-0.1,0.8-0.4,1.3-0.8,1.7c0,0,0-0.1,0-0.1C1036,274.2,1036.3,273.7,1036.8,273.3z"/>
						</g>
						<g>
							<path class="st0" d="M1030.8,199.5c0,1,0.8,1.9,1.9,1.9c1,0,1.9-0.8,1.9-1.9c0-1-0.8-1.9-1.9-1.9
								C1031.6,197.6,1030.8,198.4,1030.8,199.5z"/>
							<path class="st0" d="M1029.3,197c-0.1,1-0.9,1.8-1.9,1.8c-1,0-1.9-0.8-1.9-1.9v0C1026.6,196.9,1027.9,196.9,1029.3,197z"/>
						</g>
						<g>
							<path class="st0" d="M1036,207.3c0,1,0.8,1.9,1.9,1.9c1,0,1.9-0.8,1.9-1.9c0-1-0.8-1.9-1.9-1.9
								C1036.8,205.4,1036,206.2,1036,207.3z"/>
							<path class="st0" d="M1030.8,209.9c0,1,0.8,1.9,1.9,1.9c1,0,1.9-0.8,1.9-1.9c0-1-0.8-1.9-1.9-1.9
								C1031.6,208,1030.8,208.8,1030.8,209.9z"/>
							<path class="st0" d="M1025.6,207.3c0,1,0.8,1.9,1.9,1.9c1,0,1.9-0.8,1.9-1.9c0-1-0.8-1.9-1.9-1.9
								C1026.4,205.4,1025.6,206.2,1025.6,207.3z"/>
							<path class="st0" d="M1036,202.1c0,1,0.8,1.9,1.9,1.9c1,0,1.9-0.8,1.9-1.9c0-1-0.8-1.9-1.9-1.9
								C1036.8,200.2,1036,201,1036,202.1z"/>
							<path class="st0" d="M1030.8,204.7c0,1,0.8,1.9,1.9,1.9c1,0,1.9-0.8,1.9-1.9c0-1-0.8-1.9-1.9-1.9
								C1031.6,202.8,1030.8,203.6,1030.8,204.7z"/>
							<path class="st0" d="M1025.6,202.1c0,1,0.8,1.9,1.9,1.9c1,0,1.9-0.8,1.9-1.9c0-1-0.8-1.9-1.9-1.9
								C1026.4,200.2,1025.6,201,1025.6,202.1z"/>
							<path class="st0" d="M1030.8,199.5c0,1,0.8,1.9,1.9,1.9c1,0,1.9-0.8,1.9-1.9c0-1-0.8-1.9-1.9-1.9
								C1031.6,197.6,1030.8,198.4,1030.8,199.5z"/>
						</g>
						<g>
							<path class="st0" d="M1039.3,216.5c-0.1,0.2-0.2,0.4-0.3,0.6l-0.2-0.2c0,0-0.5,1.1-1.3,2.6c-0.9-0.1-1.6-0.9-1.6-1.9
								c0-1,0.8-1.9,1.9-1.9C1038.4,215.8,1039,216,1039.3,216.5z"/>
							<path class="st0" d="M1030.8,220.3c0,1,0.8,1.9,1.9,1.9c1,0,1.9-0.8,1.9-1.9c0-1-0.8-1.9-1.9-1.9
								C1031.6,218.4,1030.8,219.2,1030.8,220.3z"/>
							<path class="st0" d="M1025.6,217.7c0,1,0.8,1.9,1.9,1.9c1,0,1.9-0.8,1.9-1.9c0-1-0.8-1.9-1.9-1.9
								C1026.4,215.8,1025.6,216.6,1025.6,217.7z"/>
							<path class="st0" d="M1036,212.5c0,1,0.8,1.9,1.9,1.9c1,0,1.9-0.8,1.9-1.9c0-1-0.8-1.9-1.9-1.9
								C1036.8,210.6,1036,211.4,1036,212.5z"/>
							<path class="st0" d="M1044.9,214.5l-2.5,2.3c-0.7-0.3-1.2-1-1.2-1.7c0-1,0.8-1.9,1.9-1.9
								C1043.9,213.2,1044.6,213.7,1044.9,214.5z"/>
							<path class="st0" d="M1030.8,215.1c0,1,0.8,1.9,1.9,1.9c1,0,1.9-0.8,1.9-1.9c0-1-0.8-1.9-1.9-1.9
								C1031.6,213.2,1030.8,214,1030.8,215.1z"/>
							<path class="st0" d="M1025.6,212.5c0,1,0.8,1.9,1.9,1.9c1,0,1.9-0.8,1.9-1.9c0-1-0.8-1.9-1.9-1.9
								C1026.4,210.6,1025.6,211.4,1025.6,212.5z"/>
							<path class="st0" d="M1030.8,209.9c0,1,0.8,1.9,1.9,1.9c1,0,1.9-0.8,1.9-1.9c0-1-0.8-1.9-1.9-1.9
								C1031.6,208,1030.8,208.8,1030.8,209.9z"/>
						</g>
						<g>
							<path class="st0" d="M1034.4,231.3L1034.4,231.3c-0.3,0.8-1,1.3-1.8,1.3c-1,0-1.9-0.8-1.9-1.9c0-1,0.8-1.9,1.9-1.9
								c0.5,0,0.9,0.2,1.3,0.5c0,0.1,0,0.2,0,0.3C1034.1,230,1034.2,230.6,1034.4,231.3z"/>
							<path class="st0" d="M1025.6,228.1c0,1,0.8,1.9,1.9,1.9c1,0,1.9-0.8,1.9-1.9c0-1-0.8-1.9-1.9-1.9
								C1026.4,226.2,1025.6,227,1025.6,228.1z"/>
							<path class="st0" d="M1036.7,221.3c-0.3,0.6-0.5,1.1-0.8,1.7c0-0.1,0-0.1,0-0.2C1036,222.2,1036.3,221.7,1036.7,221.3z"/>
							<path class="st0" d="M1030.8,225.5c0,1,0.8,1.9,1.9,1.9c1,0,1.9-0.8,1.9-1.9c0-1-0.8-1.9-1.9-1.9
								C1031.6,223.6,1030.8,224.4,1030.8,225.5z"/>
							<path class="st0" d="M1025.6,222.9c0,1,0.8,1.9,1.9,1.9c1,0,1.9-0.8,1.9-1.9c0-1-0.8-1.9-1.9-1.9
								C1026.4,221,1025.6,221.8,1025.6,222.9z"/>
							<path class="st0" d="M1030.8,220.3c0,1,0.8,1.9,1.9,1.9c1,0,1.9-0.8,1.9-1.9c0-1-0.8-1.9-1.9-1.9
								C1031.6,218.4,1030.8,219.2,1030.8,220.3z"/>
						</g>
						<g>
							<path class="st0" d="M1037.5,240.3c-0.9-0.2-1.5-0.9-1.5-1.9c0-0.4,0.2-0.9,0.4-1.2C1036.8,238.3,1037.2,239.4,1037.5,240.3z
								"/>
							<path class="st0" d="M1030.8,241.1c0,1,0.8,1.9,1.9,1.9c1,0,1.9-0.8,1.9-1.9c0-1-0.8-1.9-1.9-1.9
								C1031.6,239.2,1030.8,240,1030.8,241.1z"/>
							<path class="st0" d="M1025.6,238.5c0,1,0.8,1.9,1.9,1.9c1,0,1.9-0.8,1.9-1.9s-0.8-1.9-1.9-1.9
								C1026.4,236.6,1025.6,237.4,1025.6,238.5z"/>
							<path class="st0" d="M1030.8,235.9c0,1,0.8,1.9,1.9,1.9c1,0,1.9-0.8,1.9-1.9c0-1-0.8-1.9-1.9-1.9
								C1031.6,234,1030.8,234.8,1030.8,235.9z"/>
							<path class="st0" d="M1025.6,233.3c0,1,0.8,1.9,1.9,1.9c1,0,1.9-0.8,1.9-1.9c0-1-0.8-1.9-1.9-1.9
								C1026.4,231.4,1025.6,232.2,1025.6,233.3z"/>
							<path class="st0" d="M1034.4,231.3L1034.4,231.3c-0.3,0.8-1,1.3-1.8,1.3c-1,0-1.9-0.8-1.9-1.9c0-1,0.8-1.9,1.9-1.9
								c0.5,0,0.9,0.2,1.3,0.5c0,0.1,0,0.2,0,0.3C1034.1,230,1034.2,230.6,1034.4,231.3z"/>
						</g>
						<g>
							<path class="st0" d="M1039.1,250.3c-0.3,0.3-0.8,0.4-1.2,0.4c-1,0-1.9-0.8-1.9-1.9c0-1,0.8-1.9,1.9-1.9c0.4,0,0.7,0.1,1,0.3
								C1039,248.3,1039,249.3,1039.1,250.3z"/>
							<path class="st0" d="M1030.8,251.5c0,1,0.8,1.9,1.9,1.9c1,0,1.9-0.8,1.9-1.9c0-1-0.8-1.9-1.9-1.9
								C1031.6,249.6,1030.8,250.4,1030.8,251.5z"/>
							<path class="st0" d="M1025.6,248.9c0,1,0.8,1.9,1.9,1.9c1,0,1.9-0.8,1.9-1.9c0-1-0.8-1.9-1.9-1.9
								C1026.4,247,1025.6,247.8,1025.6,248.9z"/>
							<path class="st0" d="M1038.6,245.4c-0.2,0.1-0.5,0.2-0.8,0.2c-1,0-1.9-0.8-1.9-1.9c0-1,0.8-1.9,1.9-1.9c0,0,0,0,0,0
								C1038.2,243,1038.4,244.2,1038.6,245.4z"/>
							<path class="st0" d="M1030.8,246.3c0,1,0.8,1.9,1.9,1.9c1,0,1.9-0.8,1.9-1.9s-0.8-1.9-1.9-1.9
								C1031.6,244.4,1030.8,245.2,1030.8,246.3z"/>
							<path class="st0" d="M1025.6,243.7c0,1,0.8,1.9,1.9,1.9c1,0,1.9-0.8,1.9-1.9c0-1-0.8-1.9-1.9-1.9
								C1026.4,241.8,1025.6,242.6,1025.6,243.7z"/>
							<path class="st0" d="M1030.8,241.1c0,1,0.8,1.9,1.9,1.9c1,0,1.9-0.8,1.9-1.9c0-1-0.8-1.9-1.9-1.9
								C1031.6,239.2,1030.8,240,1030.8,241.1z"/>
						</g>
						<g>
							<path class="st0" d="M1038.9,257.7c-0.1,1.1-0.2,2.2-0.3,3.4c-0.2,0.1-0.4,0.1-0.7,0.1c-1,0-1.9-0.8-1.9-1.9
								c0-1,0.8-1.9,1.9-1.9C1038.2,257.4,1038.6,257.5,1038.9,257.7z"/>
							<path class="st0" d="M1030.8,261.9c0,1,0.8,1.9,1.9,1.9c1,0,1.9-0.8,1.9-1.9c0-1-0.8-1.9-1.9-1.9
								C1031.6,260,1030.8,260.8,1030.8,261.9z"/>
							<path class="st0" d="M1025.6,259.3c0,1,0.8,1.9,1.9,1.9c1,0,1.9-0.8,1.9-1.9c0-1-0.8-1.9-1.9-1.9
								C1026.4,257.4,1025.6,258.2,1025.6,259.3z"/>
							<path class="st0" d="M1039.1,252.7c0,1,0,1.9-0.1,2.9c-0.3,0.3-0.7,0.4-1.2,0.4c-1,0-1.9-0.8-1.9-1.9c0-1,0.8-1.9,1.9-1.9
								C1038.3,252.2,1038.8,252.4,1039.1,252.7z"/>
							<path class="st0" d="M1030.8,256.7c0,1,0.8,1.9,1.9,1.9c1,0,1.9-0.8,1.9-1.9c0-1-0.8-1.9-1.9-1.9
								C1031.6,254.8,1030.8,255.6,1030.8,256.7z"/>
							<path class="st0" d="M1025.6,254.1c0,1,0.8,1.9,1.9,1.9c1,0,1.9-0.8,1.9-1.9c0-1-0.8-1.9-1.9-1.9
								C1026.4,252.2,1025.6,253,1025.6,254.1z"/>
							<path class="st0" d="M1030.8,251.5c0,1,0.8,1.9,1.9,1.9c1,0,1.9-0.8,1.9-1.9c0-1-0.8-1.9-1.9-1.9
								C1031.6,249.6,1030.8,250.4,1030.8,251.5z"/>
						</g>
						<g>
							<path class="st0" d="M1037.6,267.8c-0.2,1.2-0.4,2.4-0.5,3.6c-0.7-0.3-1.1-1-1.1-1.7C1036,268.7,1036.7,268,1037.6,267.8z"/>
							<path class="st0" d="M1030.8,272.3c0,1,0.8,1.9,1.9,1.9c1,0,1.9-0.8,1.9-1.9c0-1-0.8-1.9-1.9-1.9
								C1031.6,270.4,1030.8,271.3,1030.8,272.3z"/>
							<path class="st0" d="M1025.6,269.7c0,1,0.8,1.9,1.9,1.9c1,0,1.9-0.8,1.9-1.9c0-1-0.8-1.9-1.9-1.9
								C1026.4,267.8,1025.6,268.7,1025.6,269.7z"/>
							<path class="st0" d="M1038.3,262.7c-0.2,1.2-0.3,2.5-0.5,3.7c-1,0-1.8-0.9-1.8-1.9c0-1,0.8-1.9,1.9-1.9
								C1038,262.6,1038.2,262.6,1038.3,262.7z"/>
							<path class="st0" d="M1030.8,267.1c0,1,0.8,1.9,1.9,1.9c1,0,1.9-0.8,1.9-1.9c0-1-0.8-1.9-1.9-1.9
								C1031.6,265.2,1030.8,266.1,1030.8,267.1z"/>
							<path class="st0" d="M1025.6,264.5c0,1,0.8,1.9,1.9,1.9c1,0,1.9-0.8,1.9-1.9c0-1-0.8-1.9-1.9-1.9
								C1026.4,262.6,1025.6,263.5,1025.6,264.5z"/>
							<path class="st0" d="M1030.8,261.9c0,1,0.8,1.9,1.9,1.9c1,0,1.9-0.8,1.9-1.9c0-1-0.8-1.9-1.9-1.9
								C1031.6,260,1030.8,260.8,1030.8,261.9z"/>
						</g>
						<g>
							<path class="st0" d="M1027.9,278.3c-0.2,0.1-0.4,0.1-0.6,0.2c-0.4,0.1-0.8,0.2-1.2,0.4c0.3-0.4,0.8-0.6,1.4-0.6
								C1027.6,278.2,1027.7,278.2,1027.9,278.3z"/>
							<path class="st0" d="M1036.8,273.3c-0.1,0.8-0.4,1.3-0.8,1.7c0,0,0-0.1,0-0.1C1036,274.2,1036.3,273.7,1036.8,273.3z"/>
							<path class="st0" d="M1033.8,276c-0.2,0.1-0.3,0.1-0.5,0.2c-0.9,0.4-1.7,0.7-2.6,1c0.1-0.9,0.9-1.6,1.9-1.6
								C1033.1,275.6,1033.5,275.8,1033.8,276z"/>
							<path class="st0" d="M1025.6,274.9c0,1,0.8,1.9,1.9,1.9c1,0,1.9-0.8,1.9-1.9c0-1-0.8-1.9-1.9-1.9
								C1026.4,273,1025.6,273.9,1025.6,274.9z"/>
							<path class="st0" d="M1030.8,272.3c0,1,0.8,1.9,1.9,1.9c1,0,1.9-0.8,1.9-1.9c0-1-0.8-1.9-1.9-1.9
								C1031.6,270.4,1030.8,271.3,1030.8,272.3z"/>
						</g>
						<g>
							<path class="st0" d="M1029.3,197c-0.1,1-0.9,1.8-1.9,1.8c-1,0-1.9-0.8-1.9-1.9v0C1026.6,196.9,1027.9,196.9,1029.3,197z"/>
							<path class="st0" d="M1020.4,199.5c0,1,0.8,1.9,1.9,1.9c1,0,1.9-0.8,1.9-1.9c0-1-0.8-1.9-1.9-1.9
								C1021.2,197.6,1020.4,198.4,1020.4,199.5z"/>
						</g>
						<g>
							<path class="st0" d="M1025.6,207.3c0,1,0.8,1.9,1.9,1.9c1,0,1.9-0.8,1.9-1.9c0-1-0.8-1.9-1.9-1.9
								C1026.4,205.4,1025.6,206.2,1025.6,207.3z"/>
							<path class="st0" d="M1020.4,209.9c0,1,0.8,1.9,1.9,1.9c1,0,1.9-0.8,1.9-1.9c0-1-0.8-1.9-1.9-1.9
								C1021.2,208,1020.4,208.8,1020.4,209.9z"/>
							<path class="st0" d="M1015.2,207.3c0,1,0.8,1.9,1.9,1.9c1,0,1.9-0.8,1.9-1.9c0-1-0.8-1.9-1.9-1.9
								C1016,205.4,1015.2,206.2,1015.2,207.3z"/>
							<path class="st0" d="M1025.6,202.1c0,1,0.8,1.9,1.9,1.9c1,0,1.9-0.8,1.9-1.9c0-1-0.8-1.9-1.9-1.9
								C1026.4,200.2,1025.6,201,1025.6,202.1z"/>
							<path class="st0" d="M1020.4,204.7c0,1,0.8,1.9,1.9,1.9c1,0,1.9-0.8,1.9-1.9c0-1-0.8-1.9-1.9-1.9
								C1021.2,202.8,1020.4,203.6,1020.4,204.7z"/>
							<path class="st0" d="M1015.2,202.1c0,1,0.8,1.9,1.9,1.9c1,0,1.9-0.8,1.9-1.9c0-1-0.8-1.9-1.9-1.9
								C1016,200.2,1015.2,201,1015.2,202.1z"/>
							<path class="st0" d="M1020.4,199.5c0,1,0.8,1.9,1.9,1.9c1,0,1.9-0.8,1.9-1.9c0-1-0.8-1.9-1.9-1.9
								C1021.2,197.6,1020.4,198.4,1020.4,199.5z"/>
						</g>
						<g>
							<path class="st0" d="M1025.6,217.7c0,1,0.8,1.9,1.9,1.9c1,0,1.9-0.8,1.9-1.9c0-1-0.8-1.9-1.9-1.9
								C1026.4,215.8,1025.6,216.6,1025.6,217.7z"/>
							<path class="st0" d="M1020.4,220.3c0,1,0.8,1.9,1.9,1.9c1,0,1.9-0.8,1.9-1.9c0-1-0.8-1.9-1.9-1.9
								C1021.2,218.4,1020.4,219.2,1020.4,220.3z"/>
							<path class="st0" d="M1015.2,217.7c0,1,0.8,1.9,1.9,1.9c1,0,1.9-0.8,1.9-1.9c0-1-0.8-1.9-1.9-1.9
								C1016,215.8,1015.2,216.6,1015.2,217.7z"/>
							<path class="st0" d="M1025.6,212.5c0,1,0.8,1.9,1.9,1.9c1,0,1.9-0.8,1.9-1.9c0-1-0.8-1.9-1.9-1.9
								C1026.4,210.6,1025.6,211.4,1025.6,212.5z"/>
							<path class="st0" d="M1020.4,215.1c0,1,0.8,1.9,1.9,1.9c1,0,1.9-0.8,1.9-1.9c0-1-0.8-1.9-1.9-1.9
								C1021.2,213.2,1020.4,214,1020.4,215.1z"/>
							<path class="st0" d="M1015.2,212.5c0,1,0.8,1.9,1.9,1.9c1,0,1.9-0.8,1.9-1.9c0-1-0.8-1.9-1.9-1.9
								C1016,210.6,1015.2,211.4,1015.2,212.5z"/>
							<path class="st0" d="M1020.4,209.9c0,1,0.8,1.9,1.9,1.9c1,0,1.9-0.8,1.9-1.9c0-1-0.8-1.9-1.9-1.9
								C1021.2,208,1020.4,208.8,1020.4,209.9z"/>
						</g>
						<g>
							<path class="st0" d="M1025.6,228.1c0,1,0.8,1.9,1.9,1.9c1,0,1.9-0.8,1.9-1.9c0-1-0.8-1.9-1.9-1.9
								C1026.4,226.2,1025.6,227,1025.6,228.1z"/>
							<path class="st0" d="M1020.4,230.7c0,1,0.8,1.9,1.9,1.9c1,0,1.9-0.8,1.9-1.9c0-1-0.8-1.9-1.9-1.9
								C1021.2,228.8,1020.4,229.6,1020.4,230.7z"/>
							<path class="st0" d="M1015.2,228.1c0,1,0.8,1.9,1.9,1.9c1,0,1.9-0.8,1.9-1.9c0-1-0.8-1.9-1.9-1.9
								C1016,226.2,1015.2,227,1015.2,228.1z"/>
							<path class="st0" d="M1025.6,222.9c0,1,0.8,1.9,1.9,1.9c1,0,1.9-0.8,1.9-1.9c0-1-0.8-1.9-1.9-1.9
								C1026.4,221,1025.6,221.8,1025.6,222.9z"/>
							<path class="st0" d="M1020.4,225.5c0,1,0.8,1.9,1.9,1.9c1,0,1.9-0.8,1.9-1.9c0-1-0.8-1.9-1.9-1.9
								C1021.2,223.6,1020.4,224.4,1020.4,225.5z"/>
							<path class="st0" d="M1015.2,222.9c0,1,0.8,1.9,1.9,1.9c1,0,1.9-0.8,1.9-1.9c0-1-0.8-1.9-1.9-1.9
								C1016,221,1015.2,221.8,1015.2,222.9z"/>
							<path class="st0" d="M1020.4,220.3c0,1,0.8,1.9,1.9,1.9c1,0,1.9-0.8,1.9-1.9c0-1-0.8-1.9-1.9-1.9
								C1021.2,218.4,1020.4,219.2,1020.4,220.3z"/>
						</g>
						<g>
							<path class="st0" d="M1025.6,238.5c0,1,0.8,1.9,1.9,1.9c1,0,1.9-0.8,1.9-1.9s-0.8-1.9-1.9-1.9
								C1026.4,236.6,1025.6,237.4,1025.6,238.5z"/>
							<path class="st0" d="M1020.4,241.1c0,1,0.8,1.9,1.9,1.9c1,0,1.9-0.8,1.9-1.9c0-1-0.8-1.9-1.9-1.9
								C1021.2,239.2,1020.4,240,1020.4,241.1z"/>
							<path class="st0" d="M1015.2,238.5c0,1,0.8,1.9,1.9,1.9c1,0,1.9-0.8,1.9-1.9s-0.8-1.9-1.9-1.9
								C1016,236.6,1015.2,237.4,1015.2,238.5z"/>
							<path class="st0" d="M1025.6,233.3c0,1,0.8,1.9,1.9,1.9c1,0,1.9-0.8,1.9-1.9c0-1-0.8-1.9-1.9-1.9
								C1026.4,231.4,1025.6,232.2,1025.6,233.3z"/>
							<path class="st0" d="M1020.4,235.9c0,1,0.8,1.9,1.9,1.9c1,0,1.9-0.8,1.9-1.9c0-1-0.8-1.9-1.9-1.9
								C1021.2,234,1020.4,234.8,1020.4,235.9z"/>
							<path class="st0" d="M1018.9,233.3c0,1-0.8,1.9-1.9,1.9c-0.9,0-1.7-0.6-1.9-1.5c0-0.4,0.1-0.8,0.1-1.2c0.3-0.7,1-1.1,1.7-1.1
								C1018.1,231.4,1018.9,232.2,1018.9,233.3z"/>
							<path class="st0" d="M1020.4,230.7c0,1,0.8,1.9,1.9,1.9c1,0,1.9-0.8,1.9-1.9c0-1-0.8-1.9-1.9-1.9
								C1021.2,228.8,1020.4,229.6,1020.4,230.7z"/>
						</g>
						<g>
							<path class="st0" d="M1025.6,248.9c0,1,0.8,1.9,1.9,1.9c1,0,1.9-0.8,1.9-1.9c0-1-0.8-1.9-1.9-1.9
								C1026.4,247,1025.6,247.8,1025.6,248.9z"/>
							<path class="st0" d="M1020.4,251.5c0,1,0.8,1.9,1.9,1.9c1,0,1.9-0.8,1.9-1.9c0-1-0.8-1.9-1.9-1.9
								C1021.2,249.6,1020.4,250.4,1020.4,251.5z"/>
							<path class="st0" d="M1015.2,248.9c0,1,0.8,1.9,1.9,1.9c1,0,1.9-0.8,1.9-1.9c0-1-0.8-1.9-1.9-1.9
								C1016,247,1015.2,247.8,1015.2,248.9z"/>
							<path class="st0" d="M1025.6,243.7c0,1,0.8,1.9,1.9,1.9c1,0,1.9-0.8,1.9-1.9c0-1-0.8-1.9-1.9-1.9
								C1026.4,241.8,1025.6,242.6,1025.6,243.7z"/>
							<path class="st0" d="M1020.4,246.3c0,1,0.8,1.9,1.9,1.9c1,0,1.9-0.8,1.9-1.9s-0.8-1.9-1.9-1.9
								C1021.2,244.4,1020.4,245.2,1020.4,246.3z"/>
							<path class="st0" d="M1015.2,243.7c0,1,0.8,1.9,1.9,1.9c1,0,1.9-0.8,1.9-1.9c0-1-0.8-1.9-1.9-1.9
								C1016,241.8,1015.2,242.6,1015.2,243.7z"/>
							<path class="st0" d="M1020.4,241.1c0,1,0.8,1.9,1.9,1.9c1,0,1.9-0.8,1.9-1.9c0-1-0.8-1.9-1.9-1.9
								C1021.2,239.2,1020.4,240,1020.4,241.1z"/>
						</g>
						<g>
							<path class="st0" d="M1025.6,259.3c0,1,0.8,1.9,1.9,1.9c1,0,1.9-0.8,1.9-1.9c0-1-0.8-1.9-1.9-1.9
								C1026.4,257.4,1025.6,258.2,1025.6,259.3z"/>
							<path class="st0" d="M1020.4,261.9c0,1,0.8,1.9,1.9,1.9c1,0,1.9-0.8,1.9-1.9c0-1-0.8-1.9-1.9-1.9
								C1021.2,260,1020.4,260.8,1020.4,261.9z"/>
							<path class="st0" d="M1015.2,259.3c0,1,0.8,1.9,1.9,1.9c1,0,1.9-0.8,1.9-1.9c0-1-0.8-1.9-1.9-1.9
								C1016,257.4,1015.2,258.2,1015.2,259.3z"/>
							<path class="st0" d="M1025.6,254.1c0,1,0.8,1.9,1.9,1.9c1,0,1.9-0.8,1.9-1.9c0-1-0.8-1.9-1.9-1.9
								C1026.4,252.2,1025.6,253,1025.6,254.1z"/>
							<path class="st0" d="M1020.4,256.7c0,1,0.8,1.9,1.9,1.9c1,0,1.9-0.8,1.9-1.9c0-1-0.8-1.9-1.9-1.9
								C1021.2,254.8,1020.4,255.6,1020.4,256.7z"/>
							<path class="st0" d="M1015.2,254.1c0,1,0.8,1.9,1.9,1.9c1,0,1.9-0.8,1.9-1.9c0-1-0.8-1.9-1.9-1.9
								C1016,252.2,1015.2,253,1015.2,254.1z"/>
							<path class="st0" d="M1020.4,251.5c0,1,0.8,1.9,1.9,1.9c1,0,1.9-0.8,1.9-1.9c0-1-0.8-1.9-1.9-1.9
								C1021.2,249.6,1020.4,250.4,1020.4,251.5z"/>
						</g>
						<g>
							<path class="st0" d="M1025.6,269.7c0,1,0.8,1.9,1.9,1.9c1,0,1.9-0.8,1.9-1.9c0-1-0.8-1.9-1.9-1.9
								C1026.4,267.8,1025.6,268.7,1025.6,269.7z"/>
							<path class="st0" d="M1020.4,272.3c0,1,0.8,1.9,1.9,1.9c1,0,1.9-0.8,1.9-1.9c0-1-0.8-1.9-1.9-1.9
								C1021.2,270.4,1020.4,271.3,1020.4,272.3z"/>
							<path class="st0" d="M1015.2,269.7c0,1,0.8,1.9,1.9,1.9c1,0,1.9-0.8,1.9-1.9c0-1-0.8-1.9-1.9-1.9
								C1016,267.8,1015.2,268.7,1015.2,269.7z"/>
							<path class="st0" d="M1025.6,264.5c0,1,0.8,1.9,1.9,1.9c1,0,1.9-0.8,1.9-1.9c0-1-0.8-1.9-1.9-1.9
								C1026.4,262.6,1025.6,263.5,1025.6,264.5z"/>
							<path class="st0" d="M1020.4,267.1c0,1,0.8,1.9,1.9,1.9c1,0,1.9-0.8,1.9-1.9c0-1-0.8-1.9-1.9-1.9
								C1021.2,265.2,1020.4,266.1,1020.4,267.1z"/>
							<path class="st0" d="M1015.2,264.5c0,1,0.8,1.9,1.9,1.9c1,0,1.9-0.8,1.9-1.9c0-1-0.8-1.9-1.9-1.9
								C1016,262.6,1015.2,263.5,1015.2,264.5z"/>
							<path class="st0" d="M1020.4,261.9c0,1,0.8,1.9,1.9,1.9c1,0,1.9-0.8,1.9-1.9c0-1-0.8-1.9-1.9-1.9
								C1021.2,260,1020.4,260.8,1020.4,261.9z"/>
						</g>
						<g>
							<path class="st0" d="M1027.9,278.3c-0.2,0.1-0.4,0.1-0.6,0.2c-0.4,0.1-0.8,0.2-1.2,0.4c0.3-0.4,0.8-0.6,1.4-0.6
								C1027.6,278.2,1027.7,278.2,1027.9,278.3z"/>
							<path class="st0" d="M1018.9,280.1c0,0.1,0,0.3,0,0.4c-1.2,0.2-2.3,0.4-3.5,0.6c-0.2-0.3-0.3-0.6-0.3-1c0-1,0.8-1.9,1.9-1.9
								C1018.1,278.2,1018.9,279.1,1018.9,280.1z"/>
							<path class="st0" d="M1025.6,274.9c0,1,0.8,1.9,1.9,1.9c1,0,1.9-0.8,1.9-1.9c0-1-0.8-1.9-1.9-1.9
								C1026.4,273,1025.6,273.9,1025.6,274.9z"/>
							<path class="st0" d="M1020.4,277.5c0,1,0.8,1.9,1.9,1.9c1,0,1.9-0.8,1.9-1.9c0-1-0.8-1.9-1.9-1.9
								C1021.2,275.6,1020.4,276.5,1020.4,277.5z"/>
							<path class="st0" d="M1015.2,274.9c0,1,0.8,1.9,1.9,1.9c1,0,1.9-0.8,1.9-1.9c0-1-0.8-1.9-1.9-1.9
								C1016,273,1015.2,273.9,1015.2,274.9z"/>
							<path class="st0" d="M1020.4,272.3c0,1,0.8,1.9,1.9,1.9c1,0,1.9-0.8,1.9-1.9c0-1-0.8-1.9-1.9-1.9
								C1021.2,270.4,1020.4,271.3,1020.4,272.3z"/>
						</g>
						<g>
							<path class="st0" d="M1015.2,207.3c0,1,0.8,1.9,1.9,1.9c1,0,1.9-0.8,1.9-1.9c0-1-0.8-1.9-1.9-1.9
								C1016,205.4,1015.2,206.2,1015.2,207.3z"/>
							<path class="st0" d="M1009.9,209.9c0,1,0.8,1.9,1.9,1.9c1,0,1.9-0.8,1.9-1.9c0-1-0.8-1.9-1.9-1.9
								C1010.8,208,1009.9,208.8,1009.9,209.9z"/>
							<path class="st0" d="M1015.2,202.1c0,1,0.8,1.9,1.9,1.9c1,0,1.9-0.8,1.9-1.9c0-1-0.8-1.9-1.9-1.9
								C1016,200.2,1015.2,201,1015.2,202.1z"/>
							<path class="st0" d="M1013.7,204.7c0,1-0.8,1.9-1.9,1.9c-0.7,0-1.4-0.4-1.7-1.1c0.7-1.1,1.3-2,1.9-2.7
								C1013,202.9,1013.7,203.7,1013.7,204.7z"/>
						</g>
						<g>
							<path class="st0" d="M1015.2,217.7c0,1,0.8,1.9,1.9,1.9c1,0,1.9-0.8,1.9-1.9c0-1-0.8-1.9-1.9-1.9
								C1016,215.8,1015.2,216.6,1015.2,217.7z"/>
							<path class="st0" d="M1013.8,220.2c0,0.5-0.2,0.9-0.5,1.3c-0.6-1-1.4-2.3-1.4-2.3l-0.8,1.2l-1-0.8c0.2-0.8,1-1.3,1.8-1.3
								C1012.9,218.3,1013.8,219.1,1013.8,220.2z"/>
							<path class="st0" d="M1015.2,212.5c0,1,0.8,1.9,1.9,1.9c1,0,1.9-0.8,1.9-1.9c0-1-0.8-1.9-1.9-1.9
								C1016,210.6,1015.2,211.4,1015.2,212.5z"/>
							<path class="st0" d="M1009.9,215.1c0,1,0.8,1.9,1.9,1.9c1,0,1.9-0.8,1.9-1.9c0-1-0.8-1.9-1.9-1.9
								C1010.8,213.2,1009.9,214,1009.9,215.1z"/>
							<path class="st0" d="M1008.5,217.7c0,0.2,0,0.5-0.1,0.7l-2.9-2.2c0.3-0.3,0.7-0.4,1.2-0.4
								C1007.6,215.8,1008.5,216.6,1008.5,217.7z"/>
							<path class="st0" d="M1008.5,212.5c0,1-0.8,1.9-1.9,1.9c-0.4,0-0.8-0.1-1.1-0.4c0.4-0.9,1-2.1,1.7-3.3
								C1008,210.9,1008.5,211.6,1008.5,212.5z"/>
							<path class="st0" d="M1009.9,209.9c0,1,0.8,1.9,1.9,1.9c1,0,1.9-0.8,1.9-1.9c0-1-0.8-1.9-1.9-1.9
								C1010.8,208,1009.9,208.8,1009.9,209.9z"/>
						</g>
						<g>
							<path class="st0" d="M1015.2,228.1c0,1,0.8,1.9,1.9,1.9c1,0,1.9-0.8,1.9-1.9c0-1-0.8-1.9-1.9-1.9
								C1016,226.2,1015.2,227,1015.2,228.1z"/>
							<path class="st0" d="M1015.2,222.9c0,1,0.8,1.9,1.9,1.9c1,0,1.9-0.8,1.9-1.9c0-1-0.8-1.9-1.9-1.9
								C1016,221,1015.2,221.8,1015.2,222.9z"/>
						</g>
						<g>
							<path class="st0" d="M1015.2,238.5c0,1,0.8,1.9,1.9,1.9c1,0,1.9-0.8,1.9-1.9s-0.8-1.9-1.9-1.9
								C1016,236.6,1015.2,237.4,1015.2,238.5z"/>
							<path class="st0" d="M1018.9,233.3c0,1-0.8,1.9-1.9,1.9c-0.9,0-1.7-0.6-1.9-1.5c0-0.4,0.1-0.8,0.1-1.2c0.3-0.7,1-1.1,1.7-1.1
								C1018.1,231.4,1018.9,232.2,1018.9,233.3z"/>
						</g>
						<g>
							<path class="st0" d="M1015.2,248.9c0,1,0.8,1.9,1.9,1.9c1,0,1.9-0.8,1.9-1.9c0-1-0.8-1.9-1.9-1.9
								C1016,247,1015.2,247.8,1015.2,248.9z"/>
							<path class="st0" d="M1009.9,251.5c0,1,0.8,1.9,1.9,1.9c1,0,1.9-0.8,1.9-1.9c0-1-0.8-1.9-1.9-1.9
								C1010.8,249.6,1009.9,250.4,1009.9,251.5z"/>
							<path class="st0" d="M1015.2,243.7c0,1,0.8,1.9,1.9,1.9c1,0,1.9-0.8,1.9-1.9c0-1-0.8-1.9-1.9-1.9
								C1016,241.8,1015.2,242.6,1015.2,243.7z"/>
							<path class="st0" d="M1013.7,246.3c0,1-0.8,1.9-1.9,1.9c-0.2,0-0.5,0-0.7-0.1c0.1-0.1,0.1-0.2,0.2-0.4c0.5-1,1-2.1,1.5-3
								C1013.4,245,1013.7,245.6,1013.7,246.3z"/>
						</g>
						<g>
							<path class="st0" d="M1015.2,259.3c0,1,0.8,1.9,1.9,1.9c1,0,1.9-0.8,1.9-1.9c0-1-0.8-1.9-1.9-1.9
								C1016,257.4,1015.2,258.2,1015.2,259.3z"/>
							<path class="st0" d="M1009.9,261.9c0,1,0.8,1.9,1.9,1.9c1,0,1.9-0.8,1.9-1.9c0-1-0.8-1.9-1.9-1.9
								C1010.8,260,1009.9,260.8,1009.9,261.9z"/>
							<path class="st0" d="M1008.5,259.3c0,1-0.8,1.9-1.9,1.9c-0.6,0-1.2-0.3-1.5-0.8v0c0.5-1,1-2,1.5-3c0,0,0,0,0.1,0
								C1007.7,257.4,1008.5,258.2,1008.5,259.3z"/>
							<path class="st0" d="M1015.2,254.1c0,1,0.8,1.9,1.9,1.9c1,0,1.9-0.8,1.9-1.9c0-1-0.8-1.9-1.9-1.9
								C1016,252.2,1015.2,253,1015.2,254.1z"/>
							<path class="st0" d="M1009.9,256.7c0,1,0.8,1.9,1.9,1.9c1,0,1.9-0.8,1.9-1.9c0-1-0.8-1.9-1.9-1.9
								C1010.8,254.8,1009.9,255.6,1009.9,256.7z"/>
							<path class="st0" d="M1008.5,254.1c0,0.8-0.5,1.5-1.2,1.7c0.4-0.8,0.7-1.5,1.1-2.3C1008.5,253.7,1008.5,253.9,1008.5,254.1z"
								/>
							<path class="st0" d="M1009.9,251.5c0,1,0.8,1.9,1.9,1.9c1,0,1.9-0.8,1.9-1.9c0-1-0.8-1.9-1.9-1.9
								C1010.8,249.6,1009.9,250.4,1009.9,251.5z"/>
						</g>
						<g>
							<path class="st0" d="M1015.2,269.7c0,1,0.8,1.9,1.9,1.9c1,0,1.9-0.8,1.9-1.9c0-1-0.8-1.9-1.9-1.9
								C1016,267.8,1015.2,268.7,1015.2,269.7z"/>
							<path class="st0" d="M1009.9,272.3c0,1,0.8,1.9,1.9,1.9c1,0,1.9-0.8,1.9-1.9c0-1-0.8-1.9-1.9-1.9
								C1010.8,270.4,1009.9,271.3,1009.9,272.3z"/>
							<path class="st0" d="M1004.7,269.7c0,1,0.8,1.9,1.9,1.9c1,0,1.9-0.8,1.9-1.9c0-1-0.8-1.9-1.9-1.9
								C1005.6,267.8,1004.7,268.7,1004.7,269.7z"/>
							<path class="st0" d="M1015.2,264.5c0,1,0.8,1.9,1.9,1.9c1,0,1.9-0.8,1.9-1.9c0-1-0.8-1.9-1.9-1.9
								C1016,262.6,1015.2,263.5,1015.2,264.5z"/>
							<path class="st0" d="M1009.9,267.1c0,1,0.8,1.9,1.9,1.9c1,0,1.9-0.8,1.9-1.9c0-1-0.8-1.9-1.9-1.9
								C1010.8,265.2,1009.9,266.1,1009.9,267.1z"/>
							<path class="st0" d="M1004.7,264.5c0,1,0.8,1.9,1.9,1.9c1,0,1.9-0.8,1.9-1.9c0-1-0.8-1.9-1.9-1.9
								C1005.6,262.6,1004.7,263.5,1004.7,264.5z"/>
							<path class="st0" d="M1009.9,261.9c0,1,0.8,1.9,1.9,1.9c1,0,1.9-0.8,1.9-1.9c0-1-0.8-1.9-1.9-1.9
								C1010.8,260,1009.9,260.8,1009.9,261.9z"/>
						</g>
						<g>
							<path class="st0" d="M1018.9,280.1c0,0.1,0,0.3,0,0.4c-1.2,0.2-2.3,0.4-3.5,0.6c-0.2-0.3-0.3-0.6-0.3-1c0-1,0.8-1.9,1.9-1.9
								C1018.1,278.2,1018.9,279.1,1018.9,280.1z"/>
							<path class="st0" d="M1013.2,281.4c-1,0.1-2,0.2-3,0.3c0.3-0.5,0.9-0.9,1.6-0.9C1012.4,280.8,1012.8,281,1013.2,281.4z"/>
							<path class="st0" d="M1004.7,280.1c0,1,0.8,1.9,1.9,1.9c1,0,1.9-0.8,1.9-1.9c0-1-0.8-1.9-1.9-1.9
								C1005.6,278.2,1004.7,279.1,1004.7,280.1z"/>
							<path class="st0" d="M1015.2,274.9c0,1,0.8,1.9,1.9,1.9c1,0,1.9-0.8,1.9-1.9c0-1-0.8-1.9-1.9-1.9
								C1016,273,1015.2,273.9,1015.2,274.9z"/>
							<path class="st0" d="M1009.9,277.5c0,1,0.8,1.9,1.9,1.9c1,0,1.9-0.8,1.9-1.9c0-1-0.8-1.9-1.9-1.9
								C1010.8,275.6,1009.9,276.5,1009.9,277.5z"/>
							<path class="st0" d="M1004.7,274.9c0,1,0.8,1.9,1.9,1.9c1,0,1.9-0.8,1.9-1.9c0-1-0.8-1.9-1.9-1.9
								C1005.6,273,1004.7,273.9,1004.7,274.9z"/>
							<path class="st0" d="M1009.9,272.3c0,1,0.8,1.9,1.9,1.9c1,0,1.9-0.8,1.9-1.9c0-1-0.8-1.9-1.9-1.9
								C1010.8,270.4,1009.9,271.3,1009.9,272.3z"/>
						</g>
						<g>
							<path class="st0" d="M1013.2,281.4c-1,0.1-2,0.2-3,0.3c0.3-0.5,0.9-0.9,1.6-0.9C1012.4,280.8,1012.8,281,1013.2,281.4z"/>
						</g>
						<g>
							<path class="st0" d="M1008.5,212.5c0,1-0.8,1.9-1.9,1.9c-0.4,0-0.8-0.1-1.1-0.4c0.4-0.9,1-2.1,1.7-3.3
								C1008,210.9,1008.5,211.6,1008.5,212.5z"/>
						</g>
						<g>
							<path class="st0" d="M1008.5,259.3c0,1-0.8,1.9-1.9,1.9c-0.6,0-1.2-0.3-1.5-0.8v0c0.5-1,1-2,1.5-3c0,0,0,0,0.1,0
								C1007.7,257.4,1008.5,258.2,1008.5,259.3z"/>
							<path class="st0" d="M1008.5,254.1c0,0.8-0.5,1.5-1.2,1.7c0.4-0.8,0.7-1.5,1.1-2.3C1008.5,253.7,1008.5,253.9,1008.5,254.1z"
								/>
						</g>
						<g>
							<path class="st0" d="M1004.7,269.7c0,1,0.8,1.9,1.9,1.9c1,0,1.9-0.8,1.9-1.9c0-1-0.8-1.9-1.9-1.9
								C1005.6,267.8,1004.7,268.7,1004.7,269.7z"/>
							<path class="st0" d="M999.5,272.3c0,1,0.8,1.9,1.9,1.9c1,0,1.9-0.8,1.9-1.9c0-1-0.8-1.9-1.9-1.9
								C1000.4,270.4,999.5,271.3,999.5,272.3z"/>
							<path class="st0" d="M1004.7,264.5c0,1,0.8,1.9,1.9,1.9c1,0,1.9-0.8,1.9-1.9c0-1-0.8-1.9-1.9-1.9
								C1005.6,262.6,1004.7,263.5,1004.7,264.5z"/>
							<path class="st0" d="M1003.3,267.1c0,1-0.8,1.9-1.9,1.9c-0.2,0-0.3,0-0.5-0.1c0.5-1.1,1.1-2.2,1.6-3.3
								C1003,265.9,1003.3,266.5,1003.3,267.1z"/>
						</g>
						<g>
							<path class="st0" d="M1004.7,280.1c0,1,0.8,1.9,1.9,1.9c1,0,1.9-0.8,1.9-1.9c0-1-0.8-1.9-1.9-1.9
								C1005.6,278.2,1004.7,279.1,1004.7,280.1z"/>
							<path class="st0" d="M1003.3,282.2c-1.2,0-2.4,0.1-3.7,0.1c0.2-0.8,0.9-1.5,1.8-1.5C1002.3,280.8,1003,281.4,1003.3,282.2z"
								/>
							<path class="st0" d="M998.1,280.1c0,1-0.8,1.9-1.9,1.9c-0.5,0-1-0.2-1.3-0.5c0.4-1.1,0.9-2.2,1.4-3.3
								C997.3,278.3,998.1,279.1,998.1,280.1z"/>
							<path class="st0" d="M1004.7,274.9c0,1,0.8,1.9,1.9,1.9c1,0,1.9-0.8,1.9-1.9c0-1-0.8-1.9-1.9-1.9
								C1005.6,273,1004.7,273.9,1004.7,274.9z"/>
							<path class="st0" d="M999.5,277.5c0,1,0.8,1.9,1.9,1.9c1,0,1.9-0.8,1.9-1.9c0-1-0.8-1.9-1.9-1.9
								C1000.4,275.6,999.5,276.5,999.5,277.5z"/>
							<path class="st0" d="M998.1,274.9c0,0.7-0.4,1.3-1,1.6c0.3-0.6,0.6-1.2,1-1.8C998.1,274.8,998.1,274.8,998.1,274.9z"/>
							<path class="st0" d="M999.5,272.3c0,1,0.8,1.9,1.9,1.9c1,0,1.9-0.8,1.9-1.9c0-1-0.8-1.9-1.9-1.9
								C1000.4,270.4,999.5,271.3,999.5,272.3z"/>
						</g>
						<g>
							<path class="st0" d="M1003.3,282.2c-1.2,0-2.4,0.1-3.7,0.1c0.2-0.8,0.9-1.5,1.8-1.5C1002.3,280.8,1003,281.4,1003.3,282.2z"
								/>
						</g>
						<g>
							<path class="st0" d="M998.1,280.1c0,1-0.8,1.9-1.9,1.9c-0.5,0-1-0.2-1.3-0.5c0.4-1.1,0.9-2.2,1.4-3.3
								C997.3,278.3,998.1,279.1,998.1,280.1z"/>
							<path class="st0" d="M998.1,274.9c0,0.7-0.4,1.3-1,1.6c0.3-0.6,0.6-1.2,1-1.8C998.1,274.8,998.1,274.8,998.1,274.9z"/>
						</g>
					</g>
					<g>
						<path class="st61" d="M1040.7,218.3c0,0,6.5,8.1,5.8,9.2c-0.7,1.1-6.7,8.3-6.7,8.3l2.4,2.3c0,0,10.7-8.3,11-10
							c0.3-1.8-6.4-15.4-6.4-15.4L1040.7,218.3z"/>
					</g>
					<g>
						<path class="st61" d="M1031.1,185.7c-1.4,4-0.2,11.4-0.2,11.4c0.5,5.6-6.5,13.3-10.2,10.4c-3.7-3,2.2-9.4,2.9-10.6
							c0.3-0.5,0.4-1.3,0.3-2c-0.1-1-0.3-1.8-0.3-1.8s1.3-1.6,2.8-3.4C1028.9,186.6,1032,183.2,1031.1,185.7z"/>
					</g>
					<g>
						<path class="st61" d="M985.6,209c0,0,0.2,1.3,0.7,1.7c0.5,0.4,0.6-0.7,0.6-0.7L985.6,209z"/>
					</g>
					<g>
						<path class="st61" d="M1039.9,235.7c0,0-1.4,0.9-2.3,0.6c-0.7-0.2-1.1-1.5-2-1.8c-1-0.3-3.2-2.2-4.3-2.2
							c-1.1,0-3.7,0.9-3.7,1.3c0,0.4,2.5,0,2.9-0.1c0.4-0.1,1.7,0.8,1.7,1.1c-0.1,0.3-2.2-0.3-2.7,0c-0.5,0.3-2.5,2.2-2.5,2.5
							c0,0.4,0.5,0.7,0.8,0.5c0,0-0.8,0.7,0,0.8c0.7,0.2,1-0.8,2.3-1.2c1.3-0.3,2.3-0.2,2.3,0.1c0,0.2-1.3,0.1-1.8,0.4
							c-0.5,0.3-1.4,0.9-1.3,1.4c0.1,0.6,1-0.2,1.6-0.3c0.6-0.2,1.7-0.1,2.7,0.4c1,0.5,3.7,2.3,5.5,1.1c1.8-1.2,3.3-2.1,3.3-2.1
							L1039.9,235.7z"/>
					</g>
					<g>
						<g>
							<path class="st63" d="M1041.9,239.7c-0.4,0-0.8-0.6-1-0.8l0.4-0.2c0.2,0.3,0.5,0.6,0.6,0.6l0,0c0,0,0,0,0.1-0.1
								c0-0.1,0.1-0.5-0.9-2c-0.6-0.8-1.2-1.5-1.2-1.5l0.3-0.4c0,0,0.7,0.8,1.2,1.6c1.1,1.6,1.1,2.1,1,2.4
								C1042.3,239.6,1042.1,239.7,1041.9,239.7C1042,239.7,1042,239.7,1041.9,239.7z"/>
						</g>
					</g>
					<g>
						<path class="st65" d="M1029.6,189.2c0,0-1.3,4.6-5.6,5.6c-0.1-1-0.3-1.8-0.3-1.8s1.3-1.6,2.8-3.4L1029.6,189.2z"/>
					</g>
					<g>
						<path class="st61" d="M1022.8,172.5c0,0-4.8,1.8-3.9,11.1c0.9,9.3,3.3,9.5,5.8,9.4c2.5-0.2,5.1-3,6.2-6.9
							C1032.1,182.1,1036.9,168.3,1022.8,172.5z"/>
					</g>
					<g>
						<path class="st63" d="M1024,176.3c0,0,6.5,5.9,7.7,10.6c0,0,3.6-12.6,0.4-14.6c-3.2-2-9.3,0.1-9.3,0.1s-4.6-0.1-4.2,11.2
							C1018.7,183.7,1020.8,177.9,1024,176.3z"/>
					</g>
					<g>
						<path class="st63" d="M1022.1,171.7c0,0,4-2.4,6.9-1.5c2.9,0.9,7.2,3,7.1,7.8c-0.1,4.9,3.2,7.8,2.2,13.1
							c-1,5.4,1.9,6.3,2.6,8.4c0.7,2.1-0.8,2.3-2.3,0.4c-1.5-1.9-4.5-2.2-5.4,1.1c-0.9,3.3-3.4,9.8-7.3,9.6
							c-3.9-0.2-2.8-5.9,1.4-8.4c4.2-2.5,1.9-14,3.8-16.8c1.7-2.5-2.7-10.6-5.4-11.3C1023,173.4,1022.1,171.7,1022.1,171.7z"/>
					</g>
				</g>
			</g>
		</g>
	</g>
</g>
</svg>
