<?xml version="1.0" encoding="utf-8"?>
<!-- Generator: Adobe Illustrator 24.0.1, SVG Export Plug-In . SVG Version: 6.00 Build 0)  -->
<svg version="1.1" xmlns="http://www.w3.org/2000/svg" xmlns:xlink="http://www.w3.org/1999/xlink" x="0px" y="0px"
	 viewBox="0 0 200 60" style="enable-background:new 0 0 200 60;" xml:space="preserve">
<style type="text/css">
	.st0{display:none;}
	.st1{display:inline;fill:#B9B9B9;}
	.st2{display:inline;fill:#030303;}
	.st3{display:inline;}
	.st4{fill:#FDFDFD;}
	.st5{fill:#F6F6F6;}
	.st6{fill:#FAFAFA;}
	.st7{fill:#F9F9F9;}
	.st8{fill:#F7F7F7;}
	.st9{fill:#B9B9B9;}
	.st10{fill:#030303;}
	.st11{fill:#F4F4F4;}
	.st12{fill:#08EB77;}
	.st13{fill:#EE344A;}
	.st14{fill:#FBC903;}
	.st15{fill:#01DEFD;}
	.st16{font-family:'TwCenMT-Regular';}
	.st17{font-size:13.1158px;}
</style>
<g id="Layer_1" class="st0">
	<path class="st1" d="M412.9,59.3H227.1c-2.8,0-5-2.2-5-5V5.7c0-2.8,2.2-5,5-5h185.9c2.8,0,5,2.2,5,5v48.7
		C417.9,57.1,415.7,59.3,412.9,59.3z"/>
	<path class="st2" d="M411.3,57.8H228.7c-2.8,0-5-2.2-5-5V7.2c0-2.8,2.2-5,5-5h182.6c2.8,0,5,2.2,5,5v45.5
		C416.3,55.5,414.1,57.8,411.3,57.8z"/>
	<g class="st3">
		<path class="st4" d="M276.2,36.6c-1.4,2.3-2.7,4.5-4.2,6.6c-1.3,1.8-3.5,2.7-5.7,1.5c-2.2-1.2-4.6-1-6.8,0.1c-2,1-3.6,0.5-5-1.1
			c-4.1-4.7-6.4-10.1-5.2-16.4c1.1-5.9,6.1-8.4,11.6-6.1c1.2,0.5,2.2,0.5,3.4,0c3-1.4,6-1.6,8.9,0.4c0.7,0.5,1.2,1.1,1.8,1.6
			C269.5,27.4,271.1,34.2,276.2,36.6z"/>
		<path class="st5" d="M321.6,44c0,1.8,0,3.8,0,5.8c-0.9,0-1.8,0-2.7,0c0-5.8,0-11.5,0-17.3c0.7,0,1.5,0,2.4,0c0,0.6,0,1.1,0.1,1.9
			c1.4-1.7,3-2.5,5-2.1c2.5,0.4,4.1,2.4,4.4,5.6c0.5,4.1-2.2,7.6-5.8,7.3C323.8,45.1,322.7,44.4,321.6,44z M321.4,38.7
			c0.1,0,0.1,0,0.2,0c0,0.5-0.1,1,0,1.5c0.2,1.5,1.3,2.7,2.7,2.8c1.5,0.1,2.8-0.5,3.1-2c0.3-1.5,0.3-3.2,0-4.8
			c-0.2-1.2-1.4-2.1-2.7-1.8c-1,0.2-2,1-2.7,1.8C321.5,36.8,321.6,37.9,321.4,38.7z"/>
		<path class="st6" d="M307.2,43.6c0,2.2,0,4.2,0,6.2c-0.9,0-1.7,0-2.7,0c0-5.7,0-11.4,0-17.2c0.7,0,1.4,0,2.3,0
			c0,0.5,0.1,1,0.2,1.8c1.6-1.8,3.4-2.6,5.7-1.8c0.6,0.2,1.1,0.5,1.6,0.9c3,2,3.1,9.7-1.5,11.5C310.7,45.6,308.9,45.2,307.2,43.6z
			 M307.2,38.7c0,0.4,0,0.8,0,1.2c0.1,1.6,1.1,2.8,2.5,3.1c1.4,0.2,2.8-0.5,3.3-2c0.3-0.9,0.4-2,0.4-3c0-2-1.4-3.6-3.1-3.6
			c-1.7,0-3.1,1.6-3.1,3.7C307.2,38.3,307.2,38.5,307.2,38.7z"/>
		<path class="st7" d="M290.3,44.9c-0.6,0-1.2,0-1.8,0c-0.3,0-0.6,0-1,0c1.9-5.8,3.7-11.5,5.5-17.1c0.2-0.1,0.3-0.1,0.4-0.1
			c3-0.2,3-0.2,3.9,2.8c1.5,4.8,3.1,9.5,4.6,14.3c-0.1,0.1-0.2,0.2-0.3,0.2c-2.6,0.1-2.6,0.1-3.4-2.3c-0.1-0.2-0.1-0.4-0.1-0.6
			c-0.6-2.2-0.6-2.2-3-2.2c-3.3,0-3.3,0-4.3,3.1C290.7,43.6,290.5,44.2,290.3,44.9z M297,37.8c-0.8-2.6-1.6-5.1-2.3-7.6
			c-0.8,2.6-1.5,5.1-2.2,7.6C293.9,37.8,295.4,37.8,297,37.8z"/>
		<path class="st7" d="M336.6,42.2c1.7,0.2,3.2,0.4,4.7,0.5c1.3,0.1,2.2-0.6,2.5-1.8c0.3-1.4-0.3-2.4-1.5-3.1
			c-1.1-0.6-2.4-1-3.5-1.6c-2.1-1.2-3-3.1-2.4-5.2c0.5-2.1,2.3-3.5,4.7-3.5c1.6,0,3.2,0.2,5.1,0.3c-0.4,1.1-0.6,1.8-0.8,2.3
			c-1.3-0.2-2.6-0.6-3.7-0.4c-0.9,0.1-2,0.8-2.3,1.5c-0.6,1.1,0,2.2,1.2,2.8c1.3,0.6,2.6,1.2,3.8,1.9c1.8,1,2.6,2.7,2.3,4.7
			c-0.3,2-1.3,3.5-3.4,3.9c-1.7,0.3-3.5,0.5-5.2,0.2C335.7,44.5,335.8,44.3,336.6,42.2z"/>
		<path class="st8" d="M369.7,38.7c-0.1,3.9-2.7,6.7-6.4,6.6c-3.3-0.1-5.9-2.9-5.9-6.5c0.1-3.9,2.6-6.6,6.3-6.6
			C367.3,32.3,369.8,34.9,369.7,38.7z M360.4,38.6c0,0.5-0.1,0.9,0,1.4c0.3,1.4,0.8,2.7,2.4,3.1c1.8,0.4,3.4-0.8,3.8-2.8
			c0.6-2.8-0.5-5.6-2.3-5.9c-0.1,0-0.2,0-0.3,0C361.7,34.1,360.4,35.6,360.4,38.6z"/>
		<path class="st6" d="M390,42.5c0.1,0.7,0.3,1.3,0.4,2c-1.3,0.2-2.4,0.6-3.6,0.7c-4.7,0.3-7.9-3.7-6.5-8.3c0.6-2.1,1.7-3.8,4-4.4
			c4.8-1.4,7.6,2.8,6.6,6.9c-2.7,0-5.4,0-8,0C382.9,42.7,385.3,43.8,390,42.5z M388.4,37.4c0-2.1-1-3.3-2.6-3.3
			c-1.6,0-2.8,1.3-2.9,3.3C384.6,37.4,386.4,37.4,388.4,37.4z"/>
		<path class="st8" d="M355.7,44.8c-3.3,1.2-5.5-0.2-5.5-3.6c0-2.2,0-4.3,0-6.5c-0.6-0.1-1.2-0.1-1.8-0.2c0-0.6,0-1.2,0-1.9
			c0.6,0,1.1,0,1.8,0c0-0.8,0-1.5,0-2.3c0.9-0.3,1.8-0.6,2.7-0.9c0,1.1,0,2,0,3.1c1,0,1.9,0,2.9,0c0,0.7,0,1.4,0,2.1
			c-0.9,0-1.8,0-2.8,0c0,2.4-0.1,4.7,0,7c0.1,1.7,1.5,1.3,2.7,1.3C355.7,43.5,355.7,44.2,355.7,44.8z"/>
		<path class="st7" d="M374.9,44.9c-1,0-1.8,0-2.7,0c0-4.1,0-8.2,0-12.3c0.6,0,1.4,0,2.2,0c0,0.6,0.1,1.2,0.1,2.1
			c1-1.6,2.1-2.6,4.1-2.4c0,0.8,0,1.6,0,2.4c-0.9,0.3-2.1,0.4-2.7,1c-0.7,0.8-0.9,2-1,3.1C374.8,40.8,374.9,42.8,374.9,44.9z"/>
		<path class="st7" d="M262.5,19.8c-0.3-3.9,2.5-7.1,6.3-7.5C269.5,16,266.6,19.4,262.5,19.8z"/>
	</g>
	
		<text transform="matrix(1 0 0 1 287.8457 20.8608)" style="display:inline;fill:#F6F6F6; font-family:'Verdana-Bold'; font-size:10.7363px;">Download on the</text>
</g>
<g id="Layer_2">
	<g>
		<path class="st9" d="M192.9,59.3H7.1c-2.8,0-5-2.2-5-5V5.7c0-2.8,2.2-5,5-5h185.9c2.8,0,5,2.2,5,5v48.7
			C197.9,57.1,195.7,59.3,192.9,59.3z"/>
		<path class="st10" d="M191.3,57.8H8.7c-2.8,0-5-2.2-5-5V7.2c0-2.8,2.2-5,5-5h182.6c2.8,0,5,2.2,5,5v45.5
			C196.3,55.5,194.1,57.8,191.3,57.8z"/>
		<path class="st11" d="M78.1,28.4c-0.6,0.7-1.2,1.2-1.7,1.8c-3.6-2.4-6.7-2.3-9.3-0.1c-2.3,2.1-3,5.4-1.6,8.2
			c1.3,2.7,4.4,4.3,7.5,3.7c2.6-0.5,4.3-2.2,4.6-4.8c-1.9,0-3.8,0-5.9,0c0-1,0-1.8,0-2.8c2.9,0,5.7,0,8.6,0c1,4.1-1.1,8.3-4.9,9.8
			c-4.6,1.8-10-0.1-12.4-4.4c-2.2-4.1-1.1-9.2,2.7-12C69.5,24.8,74.8,25,78.1,28.4z"/>
		<path class="st12" d="M35.7,29.9c-5.2-5.1-10.4-10.3-15.6-15.4c-0.8-0.8-1.7-1.6-2.5-2.4c1-1.2,2.1-0.8,3.2-0.2
			c5,2.8,9.9,5.6,14.8,8.4c2,1.2,4,2.4,6.1,3.6c-1.9,2-3.9,4-5.8,6.1C35.8,29.9,35.8,29.9,35.7,29.9z"/>
		<path class="st13" d="M35.7,29.9c0.1,0,0.2,0,0.2,0c0.8,0.8,1.6,1.5,2.3,2.3c1.1,1.3,2.2,2.6,3.4,3.8c-5.8,3.3-11.7,6.7-17.5,10
			c-1.2,0.7-2.3,1.5-3.6,1.9c-0.8,0.3-1.8-0.1-2.6-0.2c0.4-0.5,0.8-0.9,1.3-1.4c3.1-3.1,6.2-6.3,9.3-9.4c1.2-1.3,2.3-2.5,3.5-3.8
			C33.1,32.2,34.4,31,35.7,29.9z"/>
		<path class="st5" d="M116.7,33.2c1.4-0.2,2.3-0.4,3.3-0.6c0,4.3,0.2,8.5-0.1,12.6c-0.2,3-2,4.6-4.6,5c-2.9,0.4-5.1-0.7-6.6-3.6
			c0.7-0.3,1.4-0.7,2.2-1.1c1.2,1.6,2.6,2.9,4.8,1.8c1.5-0.7,1.8-2.1,1.6-3.7c-3,1.7-5.8,1.2-7.8-1.3c-1.9-2.4-1.7-5.9,0.3-8.1
			C111.9,32.2,114.7,31.9,116.7,33.2z M117.6,38.7c0-2-1.3-3.6-3.1-3.7c-1.9-0.1-3.5,1.6-3.5,3.7c0,2,1.5,3.6,3.4,3.6
			C116.2,42.3,117.6,40.7,117.6,38.7z"/>
		<path class="st8" d="M145.9,37.6c0,2.4,0,4.5,0,6.8c-0.9,0-1.8,0-2.7,0c0-5.9,0-11.9,0-17.9c2.5,0,5-0.2,7.4,0
			c3.2,0.3,5.1,2.9,5,6.2c-0.2,2.7-2.7,4.9-5.7,5C148.6,37.6,147.3,37.6,145.9,37.6z M146,35c1.5,0,2.9,0.1,4.2,0
			c1.5-0.2,2.4-1.2,2.5-2.8c0.1-1.6-0.7-2.8-2.2-3c-1.5-0.3-3-0.1-4.5-0.1C146,31.1,146,33,146,35z"/>
		<path class="st14" d="M41.6,36.1c-1.1-1.3-2.2-2.6-3.4-3.8c-0.7-0.8-1.5-1.6-2.3-2.3c1.9-2,3.9-4,5.8-6.1c2.5,1.4,5,2.7,7.5,4.1
			c1.8,1.1,1.7,2.9-0.1,3.9C46.6,33.4,44.1,34.7,41.6,36.1z"/>
		<path class="st11" d="M171.8,44.6c-1.2-0.2-2.1-0.4-3-0.6c0-0.1,0.1-0.3,0.1-0.4c-0.7,0.3-1.3,0.8-2,1c-1.9,0.5-3.7,0.1-5-1.5
			c-1-1.2-1.1-2.7-0.3-4c1.1-1.9,3-2.4,5.1-2.4c0.8,0,1.5,0.3,2.3,0.4c-0.6-2.4-3-2.8-5.2-0.8c-0.7-0.3-1.5-0.6-2.3-1
			c1.2-2.4,3.5-3.3,6.4-2.7c2.5,0.5,3.9,2.2,3.9,4.8C171.8,39.7,171.8,42,171.8,44.6z M169.1,39.5c-1.5-0.7-3-0.9-4.4,0
			c-0.4,0.3-0.8,1-0.7,1.4c0.1,0.4,0.6,1,1.1,1.2C166.7,42.8,168.2,41.9,169.1,39.5z"/>
		<path class="st11" d="M100.8,44.8c-3.7-0.1-6.1-2.7-6-6.5c0.1-3.4,2.8-5.9,6.4-5.8c3.4,0.1,6.1,2.8,6,6.3
			C107.1,42.3,104.4,44.9,100.8,44.8z M97.6,38.6c0,2,1.6,3.7,3.4,3.7c1.8,0,3.4-1.6,3.5-3.6c0.1-2.1-1.5-3.7-3.5-3.7
			C99,35,97.6,36.6,97.6,38.6z"/>
		<path class="st11" d="M137.2,37.2c-2.7,1.1-5.4,2.2-8,3.4c1.7,2.3,3.6,2.3,5.9,0.1c0.6,0.4,1.2,0.8,1.8,1.2
			c-0.7,2.2-3.3,3.3-6.1,2.9c-3-0.5-5-3-5-6.1c0-3.1,2-5.6,4.8-6.1C133.7,32,136.1,33.6,137.2,37.2z M128.7,38.4
			c1.9-0.8,3.5-1.5,5.2-2.2c0-0.2,0-0.5,0-0.7c-1-0.1-2-0.5-2.9-0.3C129.6,35.4,128.8,36.5,128.7,38.4z"/>
		<path class="st11" d="M87.6,44.8c-3.6,0-6.3-2.6-6.3-6.2c0-3.5,2.7-6.2,6.3-6.2c3.5,0,6.3,2.8,6.2,6.3
			C93.7,42.2,91.1,44.8,87.6,44.8z M84.1,38.6c0,2,1.5,3.6,3.4,3.6c1.9,0,3.4-1.6,3.5-3.6c0-2-1.6-3.8-3.5-3.7
			C85.6,35,84.1,36.6,84.1,38.6z"/>
		<path class="st5" d="M174.1,49.7c0.6-1.3,1.1-2.6,1.8-3.9c0.8-1.4,0.8-2.6,0-4c-1.4-2.9-2.6-5.8-3.9-8.8c2.9-0.4,2.9-0.4,3.8,2
			c0.7,1.8,1.5,3.6,2.3,5.6c0.8-2,1.5-3.7,2.2-5.4c1-2.6,1-2.6,4-2.2c-2.4,5.5-4.7,10.9-7.2,16.2c-0.3,0.6-1.8,0.6-2.8,0.9
			C174.2,50,174.2,49.8,174.1,49.7z"/>
		<path class="st8" d="M124.5,44.4c-0.9,0-1.7,0-2.6,0c0-6,0-11.9,0-17.9c0.8,0,1.7,0,2.6,0C124.5,32.4,124.5,38.3,124.5,44.4z"/>
		<path class="st7" d="M159.6,44.4c-0.8,0-1.7,0-2.6,0c0-6,0-11.9,0-17.9c0.9,0,1.7,0,2.6,0C159.6,32.3,159.6,38.2,159.6,44.4z"/>
		<path class="st15" d="M17.8,47.9c0.4-0.5,0.8-0.9,1.3-1.4c3.1-3.1,6.2-6.3,9.3-9.4c1.2-1.3,2.3-2.5,3.5-3.8
			c1.3-1.1,2.5-2.3,3.8-3.4c-5.2-5.1-10.4-10.3-15.6-15.4c-0.8-0.8-1.7-1.6-2.5-2.4c-0.1,0.5-0.3,1-0.4,1.6c0,0,0,0,0,0
			c-0.1,0.4-0.3,0.7-0.3,1.1c0,10.2,0,20.5,0,30.7C16.9,45.5,17,46.9,17.8,47.9z"/>
		<text transform="matrix(1 0 0 1 61.2563 19.8091)" class="st11 st16 st17">GET IT ON</text>
	</g>
</g>
</svg>
