<?xml version="1.0" encoding="utf-8"?>
<!-- Generator: Adobe Illustrator 24.0.1, SVG Export Plug-In . SVG Version: 6.00 Build 0)  -->
<svg version="1.1" id="Layer_1" xmlns="http://www.w3.org/2000/svg" xmlns:xlink="http://www.w3.org/1999/xlink" x="0px" y="0px"
	 viewBox="0 0 200 60" style="enable-background:new 0 0 200 60;" xml:space="preserve">
<style type="text/css">
	.st0{fill:#B9B9B9;}
	.st1{fill:#030303;}
	.st2{fill:#FDFDFD;}
	.st3{fill:#F6F6F6;}
	.st4{fill:#FAFAFA;}
	.st5{fill:#F9F9F9;}
	.st6{fill:#F7F7F7;}
	.st7{font-family:'Verdana-Bold';}
	.st8{font-size:10.7363px;}
</style>
<path class="st0" d="M192.9,59.3H7.1c-2.8,0-5-2.2-5-5V5.7c0-2.8,2.2-5,5-5h185.9c2.8,0,5,2.2,5,5v48.7
	C197.9,57.1,195.7,59.3,192.9,59.3z"/>
<path class="st1" d="M191.3,57.8H8.7c-2.8,0-5-2.2-5-5V7.2c0-2.8,2.2-5,5-5h182.6c2.8,0,5,2.2,5,5v45.5
	C196.3,55.5,194.1,57.8,191.3,57.8z"/>
<g>
	<path class="st2" d="M56.2,36.6c-1.4,2.3-2.7,4.5-4.2,6.6c-1.3,1.8-3.5,2.7-5.7,1.5c-2.2-1.2-4.6-1-6.8,0.1c-2,1-3.6,0.5-5-1.1
		c-4.1-4.7-6.4-10.1-5.2-16.4c1.1-5.9,6.1-8.4,11.6-6.1c1.2,0.5,2.2,0.5,3.4,0c3-1.4,6-1.6,8.9,0.4c0.7,0.5,1.2,1.1,1.8,1.6
		C49.5,27.4,51.1,34.2,56.2,36.6z"/>
	<path class="st3" d="M101.6,44c0,1.8,0,3.8,0,5.8c-0.9,0-1.8,0-2.7,0c0-5.8,0-11.5,0-17.3c0.7,0,1.5,0,2.4,0c0,0.6,0,1.1,0.1,1.9
		c1.4-1.7,3-2.5,5-2.1c2.5,0.4,4.1,2.4,4.4,5.6c0.5,4.1-2.2,7.6-5.8,7.3C103.8,45.1,102.7,44.4,101.6,44z M101.4,38.7
		c0.1,0,0.1,0,0.2,0c0,0.5-0.1,1,0,1.5c0.2,1.5,1.3,2.7,2.7,2.8c1.5,0.1,2.8-0.5,3.1-2c0.3-1.5,0.3-3.2,0-4.8
		c-0.2-1.2-1.4-2.1-2.7-1.8c-1,0.2-2,1-2.7,1.8C101.5,36.8,101.6,37.9,101.4,38.7z"/>
	<path class="st4" d="M87.2,43.6c0,2.2,0,4.2,0,6.2c-0.9,0-1.7,0-2.7,0c0-5.7,0-11.4,0-17.2c0.7,0,1.4,0,2.3,0c0,0.5,0.1,1,0.2,1.8
		c1.6-1.8,3.4-2.6,5.7-1.8c0.6,0.2,1.1,0.5,1.6,0.9c3,2,3.1,9.7-1.5,11.5C90.7,45.6,88.9,45.2,87.2,43.6z M87.2,38.7
		c0,0.4,0,0.8,0,1.2c0.1,1.6,1.1,2.8,2.5,3.1c1.4,0.2,2.8-0.5,3.3-2c0.3-0.9,0.4-2,0.4-3c0-2-1.4-3.6-3.1-3.6
		c-1.7,0-3.1,1.6-3.1,3.7C87.2,38.3,87.2,38.5,87.2,38.7z"/>
	<path class="st5" d="M70.3,44.9c-0.6,0-1.2,0-1.8,0c-0.3,0-0.6,0-1,0c1.9-5.8,3.7-11.5,5.5-17.1c0.2-0.1,0.3-0.1,0.4-0.1
		c3-0.2,3-0.2,3.9,2.8c1.5,4.8,3.1,9.5,4.6,14.3c-0.1,0.1-0.2,0.2-0.3,0.2c-2.6,0.1-2.6,0.1-3.4-2.3c-0.1-0.2-0.1-0.4-0.1-0.6
		c-0.6-2.2-0.6-2.2-3-2.2c-3.3,0-3.3,0-4.3,3.1C70.7,43.6,70.5,44.2,70.3,44.9z M77,37.8c-0.8-2.6-1.6-5.1-2.3-7.6
		c-0.8,2.6-1.5,5.1-2.2,7.6C73.9,37.8,75.4,37.8,77,37.8z"/>
	<path class="st5" d="M116.6,42.2c1.7,0.2,3.2,0.4,4.7,0.5c1.3,0.1,2.2-0.6,2.5-1.8c0.3-1.4-0.3-2.4-1.5-3.1c-1.1-0.6-2.4-1-3.5-1.6
		c-2.1-1.2-3-3.1-2.4-5.2c0.5-2.1,2.3-3.5,4.7-3.5c1.6,0,3.2,0.2,5.1,0.3c-0.4,1.1-0.6,1.8-0.8,2.3c-1.3-0.2-2.6-0.6-3.7-0.4
		c-0.9,0.1-2,0.8-2.3,1.5c-0.6,1.1,0,2.2,1.2,2.8c1.3,0.6,2.6,1.2,3.8,1.9c1.8,1,2.6,2.7,2.3,4.7c-0.3,2-1.3,3.5-3.4,3.9
		c-1.7,0.3-3.5,0.5-5.2,0.2C115.7,44.5,115.8,44.3,116.6,42.2z"/>
	<path class="st6" d="M149.7,38.7c-0.1,3.9-2.7,6.7-6.4,6.6c-3.3-0.1-5.9-2.9-5.9-6.5c0.1-3.9,2.6-6.6,6.3-6.6
		C147.3,32.3,149.8,34.9,149.7,38.7z M140.4,38.6c0,0.5-0.1,0.9,0,1.4c0.3,1.4,0.8,2.7,2.4,3.1c1.8,0.4,3.4-0.8,3.8-2.8
		c0.6-2.8-0.5-5.6-2.3-5.9c-0.1,0-0.2,0-0.3,0C141.7,34.1,140.4,35.6,140.4,38.6z"/>
	<path class="st4" d="M170,42.5c0.1,0.7,0.3,1.3,0.4,2c-1.3,0.2-2.4,0.6-3.6,0.7c-4.7,0.3-7.9-3.7-6.5-8.3c0.6-2.1,1.7-3.8,4-4.4
		c4.8-1.4,7.6,2.8,6.6,6.9c-2.7,0-5.4,0-8,0C162.9,42.7,165.3,43.8,170,42.5z M168.4,37.4c0-2.1-1-3.3-2.6-3.3
		c-1.6,0-2.8,1.3-2.9,3.3C164.6,37.4,166.4,37.4,168.4,37.4z"/>
	<path class="st6" d="M135.7,44.8c-3.3,1.2-5.5-0.2-5.5-3.6c0-2.2,0-4.3,0-6.5c-0.6-0.1-1.2-0.1-1.8-0.2c0-0.6,0-1.2,0-1.9
		c0.6,0,1.1,0,1.8,0c0-0.8,0-1.5,0-2.3c0.9-0.3,1.8-0.6,2.7-0.9c0,1.1,0,2,0,3.1c1,0,1.9,0,2.9,0c0,0.7,0,1.4,0,2.1
		c-0.9,0-1.8,0-2.8,0c0,2.4-0.1,4.7,0,7c0.1,1.7,1.5,1.3,2.7,1.3C135.7,43.5,135.7,44.2,135.7,44.8z"/>
	<path class="st5" d="M154.9,44.9c-1,0-1.8,0-2.7,0c0-4.1,0-8.2,0-12.3c0.6,0,1.4,0,2.2,0c0,0.6,0.1,1.2,0.1,2.1
		c1-1.6,2.1-2.6,4.1-2.4c0,0.8,0,1.6,0,2.4c-0.9,0.3-2.1,0.4-2.7,1c-0.7,0.8-0.9,2-1,3.1C154.8,40.8,154.9,42.8,154.9,44.9z"/>
	<path class="st5" d="M42.5,19.8c-0.3-3.9,2.5-7.1,6.3-7.5C49.5,16,46.6,19.4,42.5,19.8z"/>
</g>
<text transform="matrix(1 0 0 1 67.8457 20.8608)" class="st3 st7 st8">Download on the</text>
</svg>
